<svg width="224" height="60" viewBox="0 0 224 60" fill="none" xmlns="http://www.w3.org/2000/svg">
<path d="M7.9624 31.7136H14.3975C14.3648 32.1333 14.4591 32.5532 14.6745 32.9469C14.8899 33.3407 15.2218 33.6998 15.6494 34.002C16.6731 34.5607 17.967 34.8356 19.2738 34.772C20.3587 34.8113 21.4393 34.6518 22.4037 34.31C22.7445 34.187 23.0288 34.0021 23.2255 33.7757C23.4221 33.5492 23.5233 33.29 23.518 33.0268C23.5253 32.7646 23.4348 32.5055 23.255 32.2739C23.0941 32.0582 22.8437 31.8797 22.5352 31.7606C21.3827 31.4155 20.1942 31.1296 18.9796 30.9051C17.1017 30.5487 15.5159 30.1894 14.2222 29.8272C12.5635 29.4211 11.0909 28.7232 9.95301 27.804C8.98044 26.9769 8.46222 25.9433 8.48822 24.8825C8.44937 24.1064 8.68112 23.3351 9.16437 22.6323C9.64762 21.9295 10.3685 21.3152 11.2676 20.8403C13.1413 19.8393 15.6745 19.3389 18.8669 19.3389C22.0594 19.3389 24.5466 19.8664 26.3286 20.9215C27.2375 21.4424 27.9591 22.099 28.4377 22.8406C28.9163 23.5823 29.1392 24.3892 29.0892 25.199H22.8294C22.7839 24.497 22.3338 23.8358 21.5774 23.3597C20.6778 22.9275 19.5886 22.7192 18.4914 22.7694C17.5728 22.741 16.6625 22.8987 15.8748 23.2228C15.5683 23.3366 15.3114 23.5038 15.13 23.7074C14.9486 23.911 14.8492 24.1437 14.8419 24.382C14.8419 25.1691 16.4402 25.9148 19.6369 26.6191L20.964 26.9057L21.2269 26.9656C24.5279 27.7013 26.5915 28.2945 27.4178 28.745C28.2285 29.1898 28.8812 29.7543 29.327 30.3961C30.0222 31.4641 30.1711 32.6609 29.7498 33.7937C29.3286 34.9266 28.3616 35.9296 27.0047 36.6412C25.014 37.6279 22.2264 38.1226 18.6416 38.1255C15.2613 38.1255 12.6865 37.5951 10.917 36.5343C9.14759 35.4735 8.16272 33.8666 7.9624 31.7136Z" fill="#312783"/>
<path d="M45.6025 33.488H51.6494C51.1716 34.8449 49.9851 36.0359 48.313 36.8372C46.4906 37.6611 44.3371 38.0754 42.1533 38.0221C39.1653 38.0221 36.8054 37.4033 35.0735 36.1657C33.3416 34.9281 32.4757 33.2427 32.4757 31.1097C32.4757 28.9311 33.3479 27.2087 35.0923 25.9425C36.8367 24.6764 39.1904 24.0419 42.1533 24.0391C45.1998 24.0391 47.5993 24.6835 49.3521 25.9725C51.1048 27.2614 51.9728 29.0423 51.9561 31.315C51.9561 31.5246 51.9561 31.6829 51.9561 31.7898C51.9561 31.8968 51.9561 31.9951 51.9561 32.0764H38.9295C38.85 32.8372 39.1598 33.5932 39.8059 34.2151C40.1229 34.4646 40.5202 34.6604 40.9666 34.7873C41.413 34.9142 41.8963 34.9687 42.3787 34.9466C43.1067 34.9592 43.8244 34.827 44.4444 34.5659C45.0035 34.3105 45.4134 33.929 45.6025 33.488ZM38.7543 29.6383H45.9155C45.957 28.9172 45.6095 28.2109 44.9389 27.6535C44.6076 27.4146 44.2042 27.2277 43.7568 27.1059C43.3093 26.984 42.8284 26.93 42.3474 26.9477C41.8802 26.9313 41.4134 26.9857 40.9805 27.107C40.5476 27.2283 40.1594 27.4134 39.8435 27.6492C39.1695 28.2204 38.787 28.9263 38.7543 29.6596V29.6383Z" fill="#312783"/>
<path d="M55.205 37.6415V24.484H61.3458V26.2848C61.9369 25.6172 62.7717 25.0659 63.7683 24.6851C64.8259 24.3183 66.0006 24.1375 67.1862 24.1589C69.4334 24.1589 71.0672 24.5439 72.0751 25.3138C73.0829 26.0838 73.5899 27.3371 73.5899 29.078V37.6415H67.3051V31.0114C67.3051 29.463 67.1111 28.4792 66.7355 28.0557C66.5032 27.832 66.1871 27.6551 65.8203 27.5437C65.4535 27.4323 65.0496 27.3905 64.651 27.4226C64.1868 27.3972 63.7209 27.453 63.2971 27.5847C62.8732 27.7165 62.5055 27.9198 62.2284 28.1755C61.7193 28.6802 61.4647 29.4844 61.4647 30.588V37.6415H55.205Z" fill="#312783"/>
<path d="M96.9265 19.8213V37.6412H90.6354V35.9302C90.0177 36.5872 89.1756 37.1318 88.1816 37.5172C87.1811 37.8718 86.0658 38.0483 84.939 38.0305C83.8121 38.0504 82.6943 37.8884 81.6762 37.5576C80.6582 37.2269 79.7686 36.7367 79.0799 36.127C77.5859 34.8609 76.8389 33.1998 76.8389 31.1437C76.8389 29.0877 77.59 27.3995 79.0924 26.0792C79.7565 25.4621 80.6267 24.9624 81.6306 24.6216C82.6345 24.2808 83.7431 24.1089 84.8639 24.1201C86.0371 24.0936 87.2026 24.2593 88.263 24.6035C89.2577 24.959 90.096 25.489 90.6918 26.1391V19.8213H96.9265ZM83.3428 30.9128C83.2579 31.8597 83.594 32.802 84.3068 33.6161C84.6141 33.9206 85.0301 34.1665 85.5154 34.3304C86.0007 34.4944 86.5392 34.5709 87.0799 34.5529C87.6123 34.5704 88.1424 34.4948 88.6201 34.3331C89.0977 34.1714 89.507 33.929 89.8091 33.6289C90.5155 32.8085 90.8489 31.863 90.7669 30.9128C90.8475 30.0082 90.5055 29.1095 89.7904 28.3463C89.474 28.0497 89.0538 27.812 88.5682 27.6551C88.0827 27.4982 87.5473 27.427 87.011 27.448C86.4884 27.4382 85.9706 27.5181 85.5048 27.6802C85.039 27.8424 84.64 28.0816 84.3443 28.3762C83.6238 29.1273 83.2729 30.0159 83.3428 30.9128Z" fill="#312783"/>
<path d="M101.496 19.8213H108.056V30.9427C108.056 32.166 108.394 33.0387 109.07 33.5605C109.753 34.0781 110.873 34.339 112.444 34.339C114.016 34.339 115.092 34.0781 115.768 33.5605C116.444 33.0429 116.776 32.166 116.776 30.9427V19.8213H123.405V30.3952C123.464 31.5978 123.253 32.7994 122.779 33.9583C122.379 34.8224 121.651 35.5987 120.67 36.2083C119.627 36.854 118.396 37.3423 117.058 37.6412C114.058 38.2801 110.844 38.2801 107.844 37.6412C106.518 37.3375 105.299 36.8496 104.263 36.2083C103.277 35.5904 102.54 34.8098 102.122 33.9412C101.643 32.7889 101.431 31.5923 101.496 30.3952V19.8213Z" fill="#009FE3"/>
<path d="M128.363 37.6412V19.8213H141.008C144.038 19.8213 146.274 20.1934 147.718 20.9377C149.162 21.682 149.884 22.8226 149.884 24.3597C149.934 25.2004 149.597 26.0308 148.92 26.7337C148.179 27.41 147.152 27.9146 145.978 28.1795C147.334 28.38 148.554 28.8825 149.446 29.6081C150.267 30.3435 150.692 31.2501 150.648 32.1746C150.669 33.1217 150.323 34.0557 149.646 34.8822C149.001 35.6887 148.026 36.3499 146.842 36.7857C145.918 37.115 144.919 37.3349 143.887 37.4359C142.117 37.5933 140.332 37.659 138.548 37.6327L128.363 37.6412ZM134.748 26.7978H140.106C140.986 26.8392 141.863 26.6895 142.61 26.3701C142.889 26.217 143.11 26.0207 143.254 25.7975C143.399 25.5743 143.464 25.3306 143.443 25.0868C143.464 24.8545 143.405 24.6219 143.269 24.4085C143.132 24.195 142.924 24.0067 142.66 23.8592C141.986 23.546 141.177 23.3955 140.363 23.4315H134.729L134.748 26.7978ZM134.748 34.0995H139.787C141.377 34.0995 142.491 33.9455 143.13 33.6461C143.43 33.4554 143.671 33.2249 143.837 32.9686C144.003 32.7123 144.09 32.4356 144.095 32.1554C144.099 31.8752 144.019 31.5973 143.861 31.3388C143.702 31.0803 143.469 30.8465 143.174 30.6518C142.372 30.2885 141.417 30.1156 140.457 30.1599H134.748V34.0995Z" fill="#312783"/>
<path d="M172.282 37.642H165.884C165.817 37.4338 165.755 37.2157 165.696 36.9875C165.646 36.7608 165.596 36.5299 165.546 36.286C164.741 36.8539 163.782 37.31 162.723 37.6292C161.684 37.9232 160.568 38.0687 159.443 38.0569C157.838 38.1124 156.265 37.7362 155.061 37.0089C154.516 36.6428 154.09 36.202 153.812 35.7154C153.533 35.2289 153.409 34.7076 153.446 34.1858C153.379 33.2273 153.824 32.2848 154.698 31.5338C155.712 30.7855 157.054 30.2826 158.523 30.1008C159.468 29.9554 160.664 29.8014 162.116 29.6303C164.29 29.3908 165.375 29.0357 165.371 28.5652V28.2316C165.381 28.0644 165.329 27.8983 165.22 27.7486C165.11 27.599 164.947 27.4708 164.745 27.3761C164.176 27.1527 163.522 27.0499 162.867 27.0809C162.117 27.0537 161.372 27.1835 160.732 27.4531C160.469 27.5816 160.246 27.7452 160.077 27.9341C159.908 28.1231 159.797 28.3334 159.75 28.5524H153.947C154.029 27.902 154.311 27.2708 154.774 26.6997C155.236 26.1285 155.869 25.6303 156.632 25.2374C158.13 24.513 160.25 24.1509 162.992 24.1509C164.459 24.1275 165.921 24.2721 167.318 24.5786C168.395 24.8176 169.349 25.263 170.066 25.8619C170.545 26.2975 170.879 26.7998 171.042 27.3333C171.27 28.2371 171.364 29.1542 171.324 30.0709V35.0499C171.303 35.5243 171.383 35.9984 171.562 36.4571C171.609 36.5966 171.697 36.728 171.821 36.8434C171.945 36.9588 172.101 37.0559 172.282 37.1287V37.642ZM165.346 31.4354C164.547 31.7201 163.687 31.9164 162.798 32.0171C162.21 32.0941 161.759 32.1626 161.452 32.2225C160.858 32.3091 160.308 32.5008 159.856 32.7785C159.53 33.0263 159.361 33.3525 159.387 33.6853C159.373 33.8928 159.422 34.0999 159.529 34.294C159.637 34.4882 159.801 34.6653 160.013 34.8146C160.237 34.9595 160.501 35.0721 160.791 35.1456C161.08 35.2191 161.388 35.252 161.696 35.2423C162.657 35.2685 163.596 35.0419 164.319 34.6093C164.659 34.3989 164.927 34.1401 165.105 33.8511C165.282 33.5621 165.365 33.2499 165.346 32.9368V31.4354Z" fill="#312783"/>
<path d="M193.365 32.7525C193.166 34.265 192.107 35.6639 190.416 36.6493C188.772 37.5818 186.623 38.048 183.969 38.048C182.687 38.0844 181.408 37.9356 180.216 37.6113C179.024 37.2869 177.946 36.7945 177.052 36.166C175.311 34.9141 174.439 33.2558 174.435 31.1913C174.435 28.967 175.32 27.2146 177.089 25.9343C178.859 24.6539 181.264 24.0137 184.307 24.0137C186.948 24.0137 189.075 24.4671 190.685 25.3739C191.493 25.8392 192.152 26.414 192.618 27.0619C193.085 27.7097 193.349 28.4167 193.396 29.1381H187.049C186.942 28.6205 186.6 28.1389 186.072 27.7607C185.828 27.6054 185.542 27.485 185.229 27.4064C184.916 27.3278 184.583 27.2927 184.25 27.303C183.75 27.2907 183.254 27.3733 182.817 27.5417C182.381 27.71 182.021 27.9576 181.778 28.2569C181.13 29.1217 180.829 30.0886 180.908 31.0587C180.908 32.2692 181.177 33.1674 181.715 33.762C181.968 34.0496 182.332 34.2843 182.767 34.4404C183.202 34.5965 183.691 34.6681 184.182 34.6474C184.905 34.6729 185.613 34.5023 186.153 34.1727C186.701 33.7828 187.052 33.2838 187.155 32.7483L193.365 32.7525Z" fill="#312783"/>
<path d="M196.476 37.6412V19.8213H202.667V29.005L208.451 24.4837H215.844L209.196 29.514L216.038 37.6412H209.077L205.008 32.4441L202.692 34.0995V37.6412H196.476Z" fill="#312783"/>
<path d="M138.009 45.1914L127.731 54.8456L125.484 51.3851C119.951 52.9366 114.244 54.1811 108.419 55.1065C101.771 56.2049 94.9953 56.9076 88.1691 57.2068C84.7254 57.3157 81.2744 57.2256 77.8529 56.9373C74.3897 56.6737 70.9975 56.0806 67.7747 55.175C66.1462 54.714 64.6004 54.127 63.1675 53.4255C61.7093 52.7236 60.4388 51.8554 59.4116 50.859C58.3835 49.8726 57.6789 48.7463 57.3459 47.5568C57.0519 46.3934 57.0519 45.2041 57.3459 44.0407C57.3607 43.9923 57.4012 43.9493 57.4596 43.9199C57.518 43.8906 57.5901 43.877 57.6622 43.8818C57.7343 43.8866 57.8013 43.9093 57.8504 43.9458C57.8994 43.9822 57.9271 44.0297 57.9281 44.0792C57.8421 45.1854 58.0326 46.2934 58.4914 47.3558C58.9502 48.3899 59.727 49.3452 60.77 50.1575C62.9058 51.7519 65.6503 52.9074 68.6949 53.4939C71.7637 54.1338 74.9458 54.4849 78.1534 54.5376C81.389 54.6031 84.6274 54.5101 87.8436 54.2596C91.0782 54.014 94.2918 53.6527 97.4711 53.1774C100.664 52.7154 103.806 52.0738 106.93 51.4194C112.319 50.2131 117.615 48.8529 122.917 47.4328L120.639 43.9338L138.009 45.1914Z" fill="url(#paint0_linear_737_1673)"/>
<path d="M188.3 15.9723C188.286 16.0207 188.245 16.0637 188.187 16.0931C188.128 16.1224 188.056 16.136 187.984 16.1312C187.912 16.1264 187.845 16.1036 187.796 16.0672C187.747 16.0308 187.719 15.9833 187.718 15.9338C187.804 14.8262 187.614 13.7168 187.155 12.6529C186.701 11.6145 185.926 10.6547 184.883 9.83837C182.743 8.24468 179.997 7.08941 176.951 6.50195C173.883 5.86177 170.701 5.51063 167.493 5.45825C164.257 5.393 161.019 5.48592 157.803 5.73628C154.568 5.99284 151.355 6.36261 148.175 6.84415C144.983 7.31039 141.847 7.94773 138.723 8.60218C133.333 9.80843 128.031 11.1901 122.736 12.5888L125.008 16.0877L107.668 14.8131L117.947 5.1631L120.188 8.61929C125.721 7.0691 131.427 5.82464 137.252 4.8979C143.901 3.79981 150.676 3.09711 157.502 2.79766C160.946 2.68871 164.397 2.77886 167.818 3.06714C171.281 3.33229 174.673 3.92541 177.897 4.82946C179.526 5.28863 181.073 5.87573 182.504 6.57894C183.96 7.28226 185.23 8.15021 186.26 9.14542C187.29 10.1322 187.993 11.2605 188.319 12.4519C188.609 13.6174 188.602 14.8082 188.3 15.9723Z" fill="url(#paint1_linear_737_1673)"/>
<defs>
<linearGradient id="paint0_linear_737_1673" x1="57.1393" y1="50.5553" x2="138.009" y2="50.5553" gradientUnits="userSpaceOnUse">
<stop offset="0.19" stop-color="#312783"/>
<stop offset="0.24" stop-color="#283C94"/>
<stop offset="0.31" stop-color="#1C5BAC"/>
<stop offset="0.4" stop-color="#1274C0"/>
<stop offset="0.49" stop-color="#0A87D0"/>
<stop offset="0.6" stop-color="#0495DB"/>
<stop offset="0.74" stop-color="#019DE1"/>
<stop offset="1" stop-color="#009FE3"/>
</linearGradient>
<linearGradient id="paint1_linear_737_1673" x1="107.637" y1="9.44912" x2="188.501" y2="9.44912" gradientUnits="userSpaceOnUse">
<stop stop-color="#009FE3"/>
<stop offset="0.26" stop-color="#019DE1"/>
<stop offset="0.4" stop-color="#0495DB"/>
<stop offset="0.51" stop-color="#0A87D0"/>
<stop offset="0.6" stop-color="#1274C0"/>
<stop offset="0.69" stop-color="#1C5BAC"/>
<stop offset="0.76" stop-color="#283C94"/>
<stop offset="0.81" stop-color="#312783"/>
</linearGradient>
</defs>
</svg>
