<svg width="342" height="290" viewBox="0 0 342 290" fill="none" xmlns="http://www.w3.org/2000/svg">
<path opacity="0.5" d="M184.08 39.4409C195.944 55.5888 195.944 81.7762 184.08 97.9348L51.8717 277.889C40.0083 294.037 20.769 294.037 8.89758 277.889C-2.96586 261.742 -2.96586 235.554 8.89758 219.395L141.106 39.4409C152.977 23.2931 172.217 23.2931 184.08 39.4409Z" fill="#0096FF"/>
<path opacity="0.5" d="M307.276 13.1622C320.044 30.7118 320.044 59.1527 307.276 76.7023L172.358 262.137C159.59 279.686 138.899 279.686 126.131 262.137C113.363 244.587 113.363 216.146 126.131 198.597L261.04 13.1622C273.808 -4.3874 294.508 -4.3874 307.276 13.1622Z" fill="#0096FF"/>
<path opacity="0.5" d="M337.393 101.584C343.536 109.945 343.536 123.493 337.393 131.843L275.617 215.929C269.475 224.29 259.521 224.29 253.386 215.929C247.244 207.568 247.244 194.02 253.386 185.669L315.162 101.584C321.305 93.2338 331.258 93.2338 337.393 101.584Z" fill="#0096FF"/>
</svg>
