<svg width="333" height="208" viewBox="0 0 333 208" fill="none" xmlns="http://www.w3.org/2000/svg">
<path opacity="0.5" d="M179.112 28.2142C190.655 39.7654 190.655 58.4984 179.112 70.0574L50.4717 198.787C38.9285 210.338 20.2085 210.338 8.65753 198.787C-2.88568 187.235 -2.88568 168.502 8.65753 156.943L137.297 28.2142C148.848 16.663 167.568 16.663 179.112 28.2142Z" fill="#002E60"/>
<path opacity="0.5" d="M298.982 9.41548C311.405 21.9695 311.405 42.3145 298.982 54.8685L167.706 187.518C155.283 200.072 135.149 200.072 122.726 187.518C110.303 174.964 110.303 154.619 122.726 142.065L253.994 9.41548C266.418 -3.13849 286.558 -3.13849 298.982 9.41548Z" fill="#0096FF"/>
<path opacity="0.5" d="M328.286 72.6674C334.263 78.6483 334.263 88.3402 328.286 94.3134L268.178 154.463C262.201 160.444 252.516 160.444 246.547 154.463C240.57 148.483 240.57 138.791 246.547 132.817L306.655 72.6674C312.632 66.6942 322.317 66.6942 328.286 72.6674Z" fill="#002E60"/>
</svg>
