<svg width="36" height="36" viewBox="0 0 36 36" fill="none" xmlns="http://www.w3.org/2000/svg">
<path d="M32.4898 10.3606C32.4801 10.3156 32.4801 10.269 32.4898 10.224C32.4815 10.1846 32.4815 10.1439 32.4898 10.1044V9.95074L32.3873 9.69456C32.3457 9.62466 32.2939 9.56134 32.2336 9.50669L32.0799 9.37006H31.9945L25.2655 5.11746L18.9122 1.18935C18.7652 1.07276 18.597 0.985758 18.4169 0.933172H18.2803C18.1276 0.907693 17.9718 0.907693 17.8191 0.933172H17.6484C17.45 0.977051 17.2598 1.05198 17.0848 1.1552L4.32695 9.09681L4.17324 9.21636L4.01953 9.35299L3.84875 9.47254L3.76335 9.57501L3.66088 9.83119V9.9849V10.0874C3.64429 10.2006 3.64429 10.3157 3.66088 10.4289V25.3387C3.6603 25.6289 3.7337 25.9145 3.87414 26.1685C4.01459 26.4225 4.21745 26.6365 4.46358 26.7904L17.2726 34.7149L17.5288 34.8174H17.6654C17.9544 34.909 18.2646 34.909 18.5535 34.8174H18.6902L18.9463 34.7149L31.6529 26.9099C31.899 26.7561 32.1019 26.5421 32.2424 26.2881C32.3828 26.0341 32.4562 25.7485 32.4556 25.4582V10.5485C32.4556 10.5485 32.4898 10.4289 32.4898 10.3606ZM17.9899 4.63926L21.0299 6.51792L11.4829 12.4272L8.42584 10.5485L17.9899 4.63926ZM16.2821 30.2574L6.88876 24.5189V13.6056L16.2821 19.4124V30.2574ZM17.9899 16.4065L14.7279 14.4424L24.2749 8.51613L27.554 10.5485L17.9899 16.4065ZM29.0911 24.4677L19.6978 30.3086V19.4124L29.0911 13.6056V24.4677Z" fill="white"/>
</svg>
