<svg width="28" height="28" viewBox="0 0 28 28" fill="none" xmlns="http://www.w3.org/2000/svg">
<path d="M23.3346 15.1659C23.3346 20.9992 19.2513 23.9159 14.398 25.6076C14.1438 25.6937 13.8678 25.6896 13.6163 25.5959C8.7513 23.9159 4.66797 20.9992 4.66797 15.1659V6.99922C4.66797 6.6898 4.79089 6.39306 5.00968 6.17426C5.22847 5.95547 5.52522 5.83256 5.83464 5.83256C8.16797 5.83256 11.0846 4.43256 13.1146 2.65922C13.3618 2.44805 13.6762 2.33203 14.0013 2.33203C14.3264 2.33203 14.6408 2.44805 14.888 2.65922C16.9296 4.44422 19.8346 5.83256 22.168 5.83256C22.4774 5.83256 22.7741 5.95547 22.9929 6.17426C23.2117 6.39306 23.3346 6.6898 23.3346 6.99922V15.1659Z" stroke="#0099FF" stroke-width="1.66667" stroke-linecap="round" stroke-linejoin="round"/>
</svg>
