<svg width="21" height="21" viewBox="0 0 21 21" fill="none" xmlns="http://www.w3.org/2000/svg">
<path d="M16.9985 11.0496C16.9985 15.2996 14.0235 17.4246 10.4874 18.6571C10.3023 18.7199 10.1012 18.7169 9.91795 18.6486C6.37344 17.4246 3.39844 15.2996 3.39844 11.0496V5.0996C3.39844 4.87417 3.48799 4.65797 3.6474 4.49856C3.8068 4.33916 4.023 4.2496 4.24844 4.2496C5.94844 4.2496 8.07344 3.2296 9.55244 1.9376C9.73252 1.78375 9.9616 1.69922 10.1984 1.69922C10.4353 1.69922 10.6644 1.78375 10.8444 1.9376C12.3319 3.2381 14.4485 4.2496 16.1485 4.2496C16.3739 4.2496 16.5901 4.33916 16.7495 4.49856C16.9089 4.65797 16.9985 4.87417 16.9985 5.0996V11.0496Z" stroke="#155DFC" stroke-width="1.7" stroke-linecap="round" stroke-linejoin="round"/>
<path d="M7.64844 10.2L9.34844 11.9L12.7484 8.5" stroke="#155DFC" stroke-width="1.7" stroke-linecap="round" stroke-linejoin="round"/>
</svg>
