<svg width="20" height="20" viewBox="0 0 20 20" fill="none" xmlns="http://www.w3.org/2000/svg">
<path d="M3.33227 11.6662C3.17457 11.6668 3.01996 11.6226 2.8864 11.5387C2.75283 11.4549 2.6458 11.3349 2.57773 11.1926C2.50966 11.0504 2.48335 10.8917 2.50185 10.7351C2.52036 10.5785 2.58292 10.4304 2.68227 10.3079L10.9323 1.8079C10.9942 1.73647 11.0785 1.6882 11.1714 1.67101C11.2644 1.65382 11.3604 1.66874 11.4437 1.71332C11.527 1.7579 11.5928 1.82948 11.63 1.91632C11.6673 2.00317 11.674 2.10011 11.6489 2.19123L10.0489 7.2079C10.0018 7.33417 9.98591 7.47 10.0028 7.60374C10.0196 7.73748 10.0687 7.86513 10.1457 7.97575C10.2227 8.08638 10.3254 8.17666 10.445 8.23887C10.5646 8.30107 10.6975 8.33334 10.8323 8.3329H16.6656C16.8233 8.33236 16.9779 8.37658 17.1115 8.46042C17.245 8.54425 17.3521 8.66427 17.4201 8.80652C17.4882 8.94877 17.5145 9.10741 17.496 9.26402C17.4775 9.42062 17.415 9.56877 17.3156 9.69123L9.0656 18.1912C9.00372 18.2627 8.91939 18.3109 8.82645 18.3281C8.73352 18.3453 8.6375 18.3304 8.55416 18.2858C8.47082 18.2412 8.40511 18.1697 8.36782 18.0828C8.33053 17.996 8.32387 17.899 8.34894 17.8079L9.94894 12.7912C9.99611 12.665 10.012 12.5291 9.99511 12.3954C9.97826 12.2617 9.92922 12.134 9.85219 12.0234C9.77517 11.9128 9.67246 11.8225 9.55287 11.7603C9.43329 11.6981 9.3004 11.6658 9.1656 11.6662H3.33227Z" stroke="#155DFC" stroke-width="1.66667" stroke-linecap="round" stroke-linejoin="round"/>
</svg>
