<svg width="48" height="48" viewBox="0 0 48 48" fill="none" xmlns="http://www.w3.org/2000/svg">
<path d="M0 24C0 10.7452 10.7452 0 24 0C37.2548 0 48 10.7452 48 24C48 37.2548 37.2548 48 24 48C10.7452 48 0 37.2548 0 24Z" fill="url(#paint0_linear_1059_9011)"/>
<path d="M34.0014 28.9201V31.9201C34.0025 32.1986 33.9455 32.4743 33.8339 32.7294C33.7223 32.9846 33.5587 33.2137 33.3535 33.402C33.1483 33.5902 32.906 33.7336 32.6421 33.8228C32.3783 33.912 32.0988 33.9452 31.8214 33.9201C28.7442 33.5857 25.7884 32.5342 23.1914 30.8501C20.7752 29.3148 18.7267 27.2663 17.1914 24.8501C15.5014 22.2413 14.4496 19.2711 14.1214 16.1801C14.0964 15.9036 14.1293 15.6249 14.2179 15.3617C14.3065 15.0986 14.449 14.8568 14.6362 14.6517C14.8234 14.4466 15.0512 14.2828 15.3052 14.1706C15.5592 14.0584 15.8337 14.0004 16.1114 14.0001H19.1114C19.5967 13.9953 20.0672 14.1672 20.4352 14.4836C20.8031 14.8001 21.0435 15.2395 21.1114 15.7201C21.238 16.6802 21.4728 17.6228 21.8114 18.5301C21.9459 18.888 21.9751 19.277 21.8953 19.651C21.8155 20.0249 21.6303 20.3682 21.3614 20.6401L20.0914 21.9101C21.515 24.4136 23.5879 26.4865 26.0914 27.9101L27.3614 26.6401C27.6333 26.3712 27.9766 26.1859 28.3505 26.1062C28.7245 26.0264 29.1135 26.0556 29.4714 26.1901C30.3787 26.5286 31.3213 26.7635 32.2814 26.8901C32.7672 26.9586 33.2108 27.2033 33.5279 27.5776C33.8451 27.9519 34.0136 28.4297 34.0014 28.9201Z" stroke="white" stroke-width="2" stroke-linecap="round" stroke-linejoin="round"/>
<defs>
<linearGradient id="paint0_linear_1059_9011" x1="7.57604" y1="-20.55" x2="65.4113" y2="0.771766" gradientUnits="userSpaceOnUse">
<stop stop-color="#0099FF"/>
<stop offset="1" stop-color="#000080"/>
</linearGradient>
</defs>
</svg>
