<svg width="36" height="36" viewBox="0 0 36 36" fill="none" xmlns="http://www.w3.org/2000/svg">
<path d="M30 15C30 22.4895 21.6915 30.2895 18.9015 32.6985C18.6416 32.8939 18.3252 32.9996 18 32.9996C17.6748 32.9996 17.3584 32.8939 17.0985 32.6985C14.3085 30.2895 6 22.4895 6 15C6 11.8174 7.26428 8.76516 9.51472 6.51472C11.7652 4.26428 14.8174 3 18 3C21.1826 3 24.2348 4.26428 26.4853 6.51472C28.7357 8.76516 30 11.8174 30 15Z" stroke="white" stroke-width="2" stroke-linecap="round" stroke-linejoin="round"/>
<path d="M18 19.5C20.4853 19.5 22.5 17.4853 22.5 15C22.5 12.5147 20.4853 10.5 18 10.5C15.5147 10.5 13.5 12.5147 13.5 15C13.5 17.4853 15.5147 19.5 18 19.5Z" stroke="white" stroke-width="2" stroke-linecap="round" stroke-linejoin="round"/>
</svg>
