<svg width="36" height="36" viewBox="0 0 36 36" fill="none" xmlns="http://www.w3.org/2000/svg">
<path d="M4.66927 5.9974V4.66406C4.31565 4.66406 3.97651 4.80454 3.72646 5.05459C3.47641 5.30464 3.33594 5.64377 3.33594 5.9974H4.66927ZM19.3359 5.9974H20.6693C20.6693 5.64377 20.5288 5.30464 20.2787 5.05459C20.0287 4.80454 19.6896 4.66406 19.3359 4.66406V5.9974ZM19.3359 13.9974V12.6641C18.9823 12.6641 18.6432 12.8045 18.3931 13.0546C18.1431 13.3046 18.0026 13.6438 18.0026 13.9974H19.3359ZM4.66927 7.33073H19.3359V4.66406H4.66927V7.33073ZM18.0026 5.9974V27.3307H20.6693V5.9974H18.0026ZM6.0026 24.6641V5.9974H3.33594V24.6641H6.0026ZM19.3359 15.3307H26.0026V12.6641H19.3359V15.3307ZM30.0026 19.3307V24.6641H32.6693V19.3307H30.0026ZM20.6693 27.3307V13.9974H18.0026V27.3307H20.6693ZM26.9453 28.2734C26.6952 28.5234 26.3562 28.6638 26.0026 28.6638C25.649 28.6638 25.31 28.5234 25.0599 28.2734L23.1746 30.1587C23.9247 30.9086 24.9419 31.3299 26.0026 31.3299C27.0633 31.3299 28.0805 30.9086 28.8306 30.1587L26.9453 28.2734ZM25.0599 26.3881C25.31 26.1381 25.649 25.9977 26.0026 25.9977C26.3562 25.9977 26.6952 26.1381 26.9453 26.3881L28.8306 24.5027C28.0805 23.7528 27.0633 23.3316 26.0026 23.3316C24.9419 23.3316 23.9247 23.7528 23.1746 24.5027L25.0599 26.3881ZM10.9453 28.2734C10.6952 28.5234 10.3562 28.6638 10.0026 28.6638C9.64905 28.6638 9.30997 28.5234 9.05994 28.2734L7.1746 30.1587C7.92471 30.9086 8.94195 31.3299 10.0026 31.3299C11.0633 31.3299 12.0805 30.9086 12.8306 30.1587L10.9453 28.2734ZM9.05994 26.3881C9.30997 26.1381 9.64905 25.9977 10.0026 25.9977C10.3562 25.9977 10.6952 26.1381 10.9453 26.3881L12.8306 24.5027C12.0805 23.7528 11.0633 23.3316 10.0026 23.3316C8.94195 23.3316 7.92471 23.7528 7.1746 24.5027L9.05994 26.3881ZM26.9453 26.3881C27.2066 26.6481 27.3359 26.9881 27.3359 27.3307H30.0026C30.0026 26.3094 29.6119 25.2827 28.8306 24.5027L26.9453 26.3881ZM27.3359 27.3307C27.3359 27.6843 27.1953 28.0234 26.9453 28.2734L28.8306 30.1587C29.5808 29.4088 30.0024 28.3915 30.0026 27.3307H27.3359ZM23.3359 25.9974H19.3359V28.6641H23.3359V25.9974ZM25.0599 28.2734C24.8099 28.0234 24.6693 27.6843 24.6693 27.3307H22.0026C22.0026 28.3521 22.3933 29.3787 23.1746 30.1587L25.0599 28.2734ZM24.6693 27.3307C24.6693 26.9771 24.8099 26.6381 25.0599 26.3881L23.1746 24.5027C22.4244 25.2527 22.0028 26.27 22.0026 27.3307H24.6693ZM9.05994 28.2734C8.80987 28.0234 8.66935 27.6843 8.66927 27.3307H6.0026C6.0026 28.3521 6.39327 29.3787 7.1746 30.1587L9.05994 28.2734ZM8.66927 27.3307C8.66935 26.9771 8.80987 26.6381 9.05994 26.3881L7.1746 24.5027C6.42441 25.2527 6.00283 26.27 6.0026 27.3307H8.66927ZM19.3359 25.9974H12.6693V28.6641H19.3359V25.9974ZM10.9453 26.3881C11.2066 26.6481 11.3359 26.9881 11.3359 27.3307H14.0026C14.0026 26.3094 13.6119 25.2827 12.8306 24.5027L10.9453 26.3881ZM11.3359 27.3307C11.3359 27.6843 11.1953 28.0234 10.9453 28.2734L12.8306 30.1587C13.5808 29.4088 14.0024 28.3915 14.0026 27.3307H11.3359ZM30.0026 24.6641C30.0026 25.0177 29.8621 25.3568 29.6121 25.6069C29.362 25.8569 29.0229 25.9974 28.6693 25.9974V28.6641C29.7301 28.6641 30.7476 28.2426 31.4977 27.4925C32.2478 26.7423 32.6693 25.7249 32.6693 24.6641H30.0026ZM26.0026 15.3307C27.0635 15.3307 28.0809 15.7522 28.831 16.5023C29.5812 17.2524 30.0026 18.2699 30.0026 19.3307H32.6693C32.6693 18.4553 32.4968 17.5883 32.1618 16.7795C31.8268 15.9707 31.3357 15.2357 30.7166 14.6167C30.0976 13.9976 29.3627 13.5066 28.5538 13.1715C27.745 12.8365 26.8781 12.6641 26.0026 12.6641V15.3307ZM3.33594 24.6641C3.33594 25.7249 3.75736 26.7423 4.50751 27.4925C5.25766 28.2426 6.27507 28.6641 7.33594 28.6641V25.9974C6.98232 25.9974 6.64318 25.8569 6.39313 25.6069C6.14308 25.3568 6.0026 25.0177 6.0026 24.6641H3.33594Z" fill="white"/>
</svg>
