<svg width="40" height="40" viewBox="0 0 40 40" fill="none" xmlns="http://www.w3.org/2000/svg">
<path d="M0 20C0 8.95431 8.95431 0 20 0C31.0457 0 40 8.95431 40 20C40 31.0457 31.0457 40 20 40C8.95431 40 0 31.0457 0 20Z" fill="url(#paint0_linear_1059_8939)"/>
<path d="M15 28.3307V13.3307C15 12.8887 15.1756 12.4648 15.4882 12.1522C15.8007 11.8397 16.2246 11.6641 16.6667 11.6641H23.3333C23.7754 11.6641 24.1993 11.8397 24.5118 12.1522C24.8244 12.4648 25 12.8887 25 13.3307V28.3307H15Z" stroke="white" stroke-width="1.66667" stroke-linecap="round" stroke-linejoin="round"/>
<path d="M15.0013 20H13.3346C12.8926 20 12.4687 20.1756 12.1561 20.4882C11.8436 20.8007 11.668 21.2246 11.668 21.6667V26.6667C11.668 27.1087 11.8436 27.5326 12.1561 27.8452C12.4687 28.1577 12.8926 28.3333 13.3346 28.3333H15.0013" stroke="white" stroke-width="1.66667" stroke-linecap="round" stroke-linejoin="round"/>
<path d="M25 17.5H26.6667C27.1087 17.5 27.5326 17.6756 27.8452 17.9882C28.1577 18.3007 28.3333 18.7246 28.3333 19.1667V26.6667C28.3333 27.1087 28.1577 27.5326 27.8452 27.8452C27.5326 28.1577 27.1087 28.3333 26.6667 28.3333H25" stroke="white" stroke-width="1.66667" stroke-linecap="round" stroke-linejoin="round"/>
<path d="M18.332 15H21.6654" stroke="white" stroke-width="1.66667" stroke-linecap="round" stroke-linejoin="round"/>
<path d="M18.332 18.3359H21.6654" stroke="white" stroke-width="1.66667" stroke-linecap="round" stroke-linejoin="round"/>
<path d="M18.332 21.6641H21.6654" stroke="white" stroke-width="1.66667" stroke-linecap="round" stroke-linejoin="round"/>
<path d="M18.332 25H21.6654" stroke="white" stroke-width="1.66667" stroke-linecap="round" stroke-linejoin="round"/>
<defs>
<linearGradient id="paint0_linear_1059_8939" x1="20" y1="0" x2="20" y2="40" gradientUnits="userSpaceOnUse">
<stop stop-color="#0B3B8F"/>
<stop offset="1" stop-color="#1E5BB8"/>
</linearGradient>
</defs>
</svg>
