<svg width="20" height="20" viewBox="0 0 20 20" fill="none" xmlns="http://www.w3.org/2000/svg">
<path d="M12.1145 18.0711C12.1461 18.15 12.2012 18.2174 12.2722 18.2641C12.3432 18.3108 12.4269 18.3347 12.5118 18.3325C12.5968 18.3303 12.6791 18.3022 12.7477 18.2519C12.8162 18.2016 12.8677 18.1316 12.8953 18.0511L18.312 2.21781C18.3386 2.14397 18.3437 2.06406 18.3266 1.98744C18.3096 1.91081 18.271 1.84064 18.2155 1.78513C18.16 1.72961 18.0898 1.69106 18.0132 1.67397C17.9366 1.65688 17.8566 1.66197 17.7828 1.68864L1.94947 7.10531C1.86905 7.13289 1.79899 7.18441 1.7487 7.25295C1.69841 7.3215 1.67028 7.40379 1.66811 7.48878C1.66593 7.57377 1.6898 7.65739 1.73652 7.72842C1.78324 7.79945 1.85057 7.85448 1.92947 7.88614L8.53781 10.5361C8.74671 10.6198 8.93652 10.7449 9.09578 10.9038C9.25504 11.0628 9.38046 11.2524 9.46447 11.4611L12.1145 18.0711Z" stroke="white" stroke-width="1.66667" stroke-linecap="round" stroke-linejoin="round"/>
<path d="M18.2104 1.78906L9.09375 10.9049" stroke="white" stroke-width="1.66667" stroke-linecap="round" stroke-linejoin="round"/>
</svg>
