<svg width="50" height="50" viewBox="0 0 50 50" fill="none" xmlns="http://www.w3.org/2000/svg">
<rect x="0.683594" y="0.683594" width="47.8516" height="47.8516" rx="4.78516" fill="#E6F2FF"/>
<rect x="0.683594" y="0.683594" width="47.8516" height="47.8516" rx="4.78516" stroke="#DCEFFF" stroke-width="1.36719"/>
<g clip-path="url(#clip0_1059_9093)">
<path d="M32.3085 32.2349H29.0691V27.159C29.0691 25.9486 29.0445 24.3909 27.3811 24.3909C25.6922 24.3909 25.4342 25.7079 25.4342 27.0697V32.2349H22.1949V21.7969H25.3066V23.2197H25.3486C25.7833 22.3993 26.8406 21.5335 28.4202 21.5335C31.7023 21.5335 32.3094 23.6936 32.3094 26.5055L32.3085 32.2349ZM18.5363 20.3686C17.4936 20.3686 16.656 19.5246 16.656 18.4865C16.656 17.4492 17.4945 16.6061 18.5363 16.6061C19.5754 16.6061 20.4176 17.4492 20.4176 18.4865C20.4176 19.5246 19.5745 20.3686 18.5363 20.3686ZM20.1605 32.2349H16.9121V21.7969H20.1605V32.2349ZM33.929 13.5938H15.2861C14.3938 13.5938 13.6719 14.2992 13.6719 15.1697V33.8928C13.6719 34.7642 14.3938 35.4688 15.2861 35.4688H33.9263C34.8177 35.4688 35.5469 34.7642 35.5469 33.8928V15.1697C35.5469 14.2992 34.8177 13.5938 33.9263 13.5938H33.929Z" fill="#0099FF"/>
</g>
<defs>
<clipPath id="clip0_1059_9093">
<rect width="21.875" height="21.875" fill="white" transform="translate(13.6719 13.6719)"/>
</clipPath>
</defs>
</svg>
