<svg width="50" height="50" viewBox="0 0 50 50" fill="none" xmlns="http://www.w3.org/2000/svg">
<rect x="0.683594" y="0.683594" width="47.8516" height="47.8516" rx="4.78516" fill="#E6F2FF"/>
<rect x="0.683594" y="0.683594" width="47.8516" height="47.8516" rx="4.78516" stroke="#DCEFFF" stroke-width="1.36719"/>
<g clip-path="url(#clip0_1059_9099)">
<path d="M24.6094 15.5652C27.5297 15.5652 27.876 15.5762 29.0299 15.629C31.994 15.7639 33.3785 17.1703 33.5134 20.1125C33.5663 21.2655 33.5763 21.6118 33.5763 24.5322C33.5763 27.4534 33.5654 27.7988 33.5134 28.9518C33.3776 31.8913 31.9967 33.3004 29.0299 33.4353C27.876 33.4881 27.5315 33.4991 24.6094 33.4991C21.6891 33.4991 21.3427 33.4881 20.1897 33.4353C17.2184 33.2995 15.8411 31.8867 15.7062 28.9509C15.6534 27.7979 15.6424 27.4525 15.6424 24.5312C15.6424 21.6109 15.6543 21.2655 15.7062 20.1116C15.8421 17.1703 17.2229 15.763 20.1897 15.6281C21.3436 15.5762 21.6891 15.5652 24.6094 15.5652ZM24.6094 13.5938C21.6389 13.5938 21.2671 13.6065 20.1004 13.6594C16.1283 13.8417 13.9207 16.0456 13.7384 20.0214C13.6846 21.1889 13.6719 21.5608 13.6719 24.5312C13.6719 27.5017 13.6846 27.8745 13.7375 29.0411C13.9198 33.0133 16.1237 35.2208 20.0995 35.4031C21.2671 35.456 21.6389 35.4688 24.6094 35.4688C27.5798 35.4688 27.9526 35.456 29.1193 35.4031C33.0878 35.2208 35.3008 33.0169 35.4803 29.0411C35.5341 27.8745 35.5469 27.5017 35.5469 24.5312C35.5469 21.5608 35.5341 21.1889 35.4812 20.0223C35.3026 16.0538 33.096 13.8426 29.1202 13.6603C27.9526 13.6065 27.5798 13.5938 24.6094 13.5938ZM24.6094 18.9148C23.8718 18.9148 23.1415 19.0601 22.4601 19.3424C21.7787 19.6246 21.1595 20.0383 20.638 20.5599C20.1164 21.0814 19.7027 21.7005 19.4205 22.3819C19.1382 23.0634 18.993 23.7937 18.993 24.5312C18.993 25.2688 19.1382 25.9991 19.4205 26.6806C19.7027 27.362 20.1164 27.9811 20.638 28.5026C21.1595 29.0242 21.7787 29.4379 22.4601 29.7201C23.1415 30.0024 23.8718 30.1477 24.6094 30.1477C26.0989 30.1477 27.5275 29.5559 28.5808 28.5026C29.6341 27.4494 30.2258 26.0208 30.2258 24.5312C30.2258 23.0417 29.6341 21.6131 28.5808 20.5599C27.5275 19.5066 26.0989 18.9148 24.6094 18.9148ZM24.6094 28.1771C23.6424 28.1771 22.7151 27.793 22.0314 27.1092C21.3477 26.4255 20.9635 25.4982 20.9635 24.5312C20.9635 23.5643 21.3477 22.637 22.0314 21.9533C22.7151 21.2695 23.6424 20.8854 24.6094 20.8854C25.5763 20.8854 26.5036 21.2695 27.1874 21.9533C27.8711 22.637 28.2552 23.5643 28.2552 24.5312C28.2552 25.4982 27.8711 26.4255 27.1874 27.1092C26.5036 27.793 25.5763 28.1771 24.6094 28.1771ZM30.4482 17.3809C30.2758 17.3809 30.105 17.4148 29.9457 17.4808C29.7864 17.5468 29.6417 17.6435 29.5198 17.7654C29.3979 17.8873 29.3011 18.0321 29.2352 18.1914C29.1692 18.3507 29.1352 18.5214 29.1352 18.6938C29.1352 18.8662 29.1692 19.037 29.2352 19.1963C29.3011 19.3556 29.3979 19.5003 29.5198 19.6222C29.6417 19.7441 29.7864 19.8408 29.9457 19.9068C30.105 19.9728 30.2758 20.0068 30.4482 20.0068C30.7964 20.0068 31.1304 19.8684 31.3766 19.6222C31.6228 19.376 31.7611 19.042 31.7611 18.6938C31.7611 18.3456 31.6228 18.0116 31.3766 17.7654C31.1304 17.5192 30.7964 17.3809 30.4482 17.3809Z" fill="#0099FF"/>
</g>
<defs>
<clipPath id="clip0_1059_9099">
<rect width="21.875" height="21.875" fill="white" transform="translate(13.6719 13.6719)"/>
</clipPath>
</defs>
</svg>
