<svg width="36" height="36" viewBox="0 0 36 36" fill="none" xmlns="http://www.w3.org/2000/svg">
<path d="M32.1138 12.9631C32.1138 12.9631 32.1138 12.9631 32.1138 12.8881C31.0569 10.0025 29.1392 7.51104 26.6201 5.75091C24.1009 3.99078 21.102 3.04688 18.0288 3.04688C14.9557 3.04688 11.9567 3.99078 9.43759 5.75091C6.91846 7.51104 5.00073 10.0025 3.94383 12.8881C3.94383 12.8881 3.94383 12.8881 3.94383 12.9631C2.76352 16.2195 2.76352 19.7868 3.94383 23.0431C3.94383 23.0431 3.94383 23.0431 3.94383 23.1181C5.00073 26.0038 6.91846 28.4952 9.43759 30.2553C11.9567 32.0154 14.9557 32.9594 18.0288 32.9594C21.102 32.9594 24.1009 32.0154 26.6201 30.2553C29.1392 28.4952 31.0569 26.0038 32.1138 23.1181C32.1138 23.1181 32.1138 23.1181 32.1138 23.0431C33.2941 19.7868 33.2941 16.2195 32.1138 12.9631ZM6.38883 21.0031C5.86867 19.0369 5.86867 16.9693 6.38883 15.0031H9.17883C8.93888 16.9959 8.93888 19.0103 9.17883 21.0031H6.38883ZM7.61883 24.0031H9.71883C10.0709 25.3409 10.5741 26.6342 11.2188 27.8581C9.74777 26.856 8.51807 25.5392 7.61883 24.0031ZM9.71883 12.0031H7.61883C8.50513 10.4717 9.71911 9.15532 11.1738 8.14812C10.5447 9.37398 10.0565 10.6672 9.71883 12.0031ZM16.4988 29.5531C14.6565 28.2011 13.3625 26.231 12.8538 24.0031H16.4988V29.5531ZM16.4988 21.0031H12.2088C11.9289 19.0129 11.9289 16.9933 12.2088 15.0031H16.4988V21.0031ZM16.4988 12.0031H12.8538C13.3625 9.77527 14.6565 7.8051 16.4988 6.45312V12.0031ZM28.3788 12.0031H26.2788C25.9267 10.6654 25.4235 9.37203 24.7788 8.14812C26.2499 9.15022 27.4796 10.467 28.3788 12.0031ZM19.4988 6.45312C21.3412 7.8051 22.6351 9.77527 23.1438 12.0031H19.4988V6.45312ZM19.4988 29.5531V24.0031H23.1438C22.6351 26.231 21.3412 28.2011 19.4988 29.5531ZM23.7888 21.0031H19.4988V15.0031H23.7888C24.0687 16.9933 24.0687 19.0129 23.7888 21.0031ZM24.8238 27.8581C25.4685 26.6342 25.9717 25.3409 26.3238 24.0031H28.4238C27.5246 25.5392 26.2949 26.856 24.8238 27.8581ZM29.6088 21.0031H26.8188C26.9408 20.0078 27.0009 19.0059 26.9988 18.0031C27.0005 17.0004 26.9404 15.9985 26.8188 15.0031H29.6088C30.129 16.9693 30.129 19.0369 29.6088 21.0031Z" fill="white"/>
</svg>
