<svg width="50" height="50" viewBox="0 0 50 50" fill="none" xmlns="http://www.w3.org/2000/svg">
<g clip-path="url(#clip0_1059_3523)">
<path d="M43.0547 11.1094H30.5547V45.8316H45.8325V13.8872C45.8325 13.1504 45.5398 12.4439 45.0189 11.923C44.4979 11.402 43.7914 11.1094 43.0547 11.1094ZM36.1102 34.7205H33.3325V31.9427H36.1102V34.7205ZM36.1102 27.776H33.3325V24.9983H36.1102V27.776ZM36.1102 20.8316H33.3325V18.0538H36.1102V20.8316ZM41.6658 34.7205H38.888V31.9427H41.6658V34.7205ZM41.6658 27.776H38.888V24.9983H41.6658V27.776ZM41.6658 20.8316H38.888V18.0538H41.6658V20.8316Z" fill="url(#paint0_linear_1059_3523)"/>
<path d="M24.8325 4.16797H8.49913C7.71822 4.16797 6.96929 4.47819 6.4171 5.03038C5.8649 5.58257 5.55469 6.3315 5.55469 7.11241V45.8346H12.4991V41.668H20.8325V45.8346H27.7769V7.11241C27.7769 6.3315 27.4667 5.58257 26.9145 5.03038C26.3623 4.47819 25.6134 4.16797 24.8325 4.16797ZM12.4991 34.7235H9.72135V31.9457H12.4991V34.7235ZM12.4991 27.7791H9.72135V25.0013H12.4991V27.7791ZM12.4991 20.8346H9.72135V18.0569H12.4991V20.8346ZM12.4991 13.8902H9.72135V11.1124H12.4991V13.8902ZM18.0547 34.7235H15.2769V31.9457H18.0547V34.7235ZM18.0547 27.7791H15.2769V25.0013H18.0547V27.7791ZM18.0547 20.8346H15.2769V18.0569H18.0547V20.8346ZM18.0547 13.8902H15.2769V11.1124H18.0547V13.8902ZM23.6102 34.7235H20.8325V31.9457H23.6102V34.7235ZM23.6102 27.7791H20.8325V25.0013H23.6102V27.7791ZM23.6102 20.8346H20.8325V18.0569H23.6102V20.8346ZM23.6102 13.8902H20.8325V11.1124H23.6102V13.8902Z" fill="url(#paint1_linear_1059_3523)"/>
</g>
<defs>
<linearGradient id="paint0_linear_1059_3523" x1="32.966" y1="-3.75608" x2="53.3401" y2="-0.451163" gradientUnits="userSpaceOnUse">
<stop stop-color="#0099FF"/>
<stop offset="1" stop-color="#000080"/>
</linearGradient>
<linearGradient id="paint1_linear_1059_3523" x1="9.06211" y1="-13.6706" x2="38.3448" y2="-7.91299" gradientUnits="userSpaceOnUse">
<stop stop-color="#0099FF"/>
<stop offset="1" stop-color="#000080"/>
</linearGradient>
<clipPath id="clip0_1059_3523">
<rect width="50" height="50" fill="white"/>
</clipPath>
</defs>
</svg>
