<svg width="50" height="50" viewBox="0 0 50 50" fill="none" xmlns="http://www.w3.org/2000/svg">
<path fill-rule="evenodd" clip-rule="evenodd" d="M25.0013 4.16797C36.5075 4.16797 45.8346 13.4951 45.8346 25.0013C45.8346 36.5075 36.5075 45.8346 25.0013 45.8346C13.4951 45.8346 4.16797 36.5075 4.16797 25.0013C4.16797 13.4951 13.4951 4.16797 25.0013 4.16797ZM27.0846 8.4638V10.418C27.084 10.949 26.8807 11.4597 26.5162 11.8458C26.1517 12.2319 25.6535 12.4643 25.1234 12.4954C24.5933 12.5265 24.0713 12.3541 23.6642 12.0132C23.257 11.6724 22.9953 11.189 22.9326 10.6617L22.918 10.418V8.4638C19.3383 8.91584 16.0018 10.5166 13.4092 13.0259C10.8165 15.5351 9.10759 18.8175 8.5388 22.3805L8.4638 22.918H10.418C10.949 22.9186 11.4597 23.1219 11.8458 23.4864C12.2319 23.8509 12.4643 24.3491 12.4954 24.8792C12.5265 25.4093 12.3541 25.9313 12.0132 26.3385C11.6724 26.7456 11.189 27.0073 10.6617 27.0701L10.418 27.0846H8.4638C8.96721 31.0664 10.8903 34.7328 13.88 37.4105C16.8696 40.0881 20.7249 41.5972 24.7379 41.6605C28.7508 41.7239 32.6519 40.3372 35.7245 37.7552C38.7971 35.1732 40.835 31.5693 41.4638 27.6055L41.5388 27.0846H39.5846C39.0536 27.084 38.5429 26.8807 38.1568 26.5162C37.7707 26.1517 37.5383 25.6535 37.5072 25.1234C37.4761 24.5933 37.6485 24.0713 37.9894 23.6642C38.3302 23.257 38.8136 22.9953 39.3409 22.9326L39.5846 22.918H41.5388C41.0841 19.2851 39.443 15.9039 36.8701 13.2992L31.8201 23.2138L31.4971 23.8263L30.8513 25.0971C30.0805 26.5971 29.243 28.1263 28.0951 29.2742C26.0701 31.2971 22.7034 31.543 20.5826 29.4201C18.4596 27.2992 18.7055 23.9326 20.7284 21.9076C21.7117 20.9242 22.9742 20.168 24.2617 19.4867L26.1763 18.5055L27.9451 17.5805L36.7013 13.1326C34.0971 10.56 30.7168 8.9189 27.0846 8.4638ZM27.4221 22.5805L26.9846 22.8138L26.5346 23.0492C25.6971 23.4846 24.8221 23.9367 24.093 24.5034L23.6742 24.8576L23.5221 25.0326C23.1201 25.5742 23.2409 26.1867 23.5284 26.4742C23.8159 26.7617 24.4284 26.8826 24.9701 26.4805L25.1492 26.3263L25.4992 25.9096C25.9513 25.3263 26.3326 24.6492 26.6888 23.9721L26.9534 23.468C27.1089 23.1624 27.2652 22.8666 27.4221 22.5805Z" fill="url(#paint0_linear_1059_3488)"/>
<defs>
<linearGradient id="paint0_linear_1059_3488" x1="10.7444" y1="-13.6706" x2="60.9486" y2="4.8379" gradientUnits="userSpaceOnUse">
<stop stop-color="#0099FF"/>
<stop offset="1" stop-color="#000080"/>
</linearGradient>
</defs>
</svg>
