<svg width="50" height="50" viewBox="0 0 50 50" fill="none" xmlns="http://www.w3.org/2000/svg">
<path d="M25.0013 4.16797C13.5138 4.16797 4.16797 13.5138 4.16797 25.0013V33.6325C4.16797 35.7659 6.03672 37.5013 8.33464 37.5013H10.418C10.9705 37.5013 11.5004 37.2818 11.8911 36.8911C12.2818 36.5004 12.5013 35.9705 12.5013 35.418V24.7034C12.5013 24.1509 12.2818 23.6209 11.8911 23.2302C11.5004 22.8395 10.9705 22.6201 10.418 22.6201H8.5263C9.68464 14.5576 16.6221 8.33464 25.0013 8.33464C33.3805 8.33464 40.318 14.5576 41.4763 22.6201H39.5846C39.0321 22.6201 38.5022 22.8395 38.1115 23.2302C37.7208 23.6209 37.5013 24.1509 37.5013 24.7034V37.5013C37.5013 39.7992 35.6326 41.668 33.3346 41.668H29.168V39.5846H20.8346V45.8346H33.3346C37.9305 45.8346 41.668 42.0971 41.668 37.5013C43.9659 37.5013 45.8346 35.7659 45.8346 33.6325V25.0013C45.8346 13.5138 36.4888 4.16797 25.0013 4.16797Z" fill="url(#paint0_linear_1059_3753)"/>
<defs>
<linearGradient id="paint0_linear_1059_3753" x1="10.7444" y1="-13.6706" x2="60.9486" y2="4.8379" gradientUnits="userSpaceOnUse">
<stop stop-color="#0099FF"/>
<stop offset="1" stop-color="#000080"/>
</linearGradient>
</defs>
</svg>
