<svg width="50" height="50" viewBox="0 0 50 50" fill="none" xmlns="http://www.w3.org/2000/svg">
<path d="M40.625 18.75C42.2826 18.75 43.8723 19.4085 45.0444 20.5806C46.2165 21.7527 46.875 23.3424 46.875 25V40.625C46.875 42.2826 46.2165 43.8723 45.0444 45.0444C43.8723 46.2165 42.2826 46.875 40.625 46.875H31.25C29.5924 46.875 28.0027 46.2165 26.8306 45.0444C25.6585 43.8723 25 42.2826 25 40.625V25C25 23.3424 25.6585 21.7527 26.8306 20.5806C28.0027 19.4085 29.5924 18.75 31.25 18.75H40.625ZM21.875 40.625C21.875 41.7188 22.0687 42.7625 22.4125 43.7375C22.2354 43.7458 22.0562 43.75 21.875 43.75C12.0625 43.75 6.25 37.4094 6.25 31.25V29.6875C6.25 28.4443 6.74386 27.252 7.62294 26.3729C8.50201 25.4939 9.6943 25 10.9375 25H21.875V40.625ZM32.8125 25C32.3981 25 32.0007 25.1646 31.7076 25.4576C31.4146 25.7507 31.25 26.1481 31.25 26.5625C31.25 26.9769 31.4146 27.3743 31.7076 27.6674C32.0007 27.9604 32.3981 28.125 32.8125 28.125H39.0625C39.4769 28.125 39.8743 27.9604 40.1674 27.6674C40.4604 27.3743 40.625 26.9769 40.625 26.5625C40.625 26.1481 40.4604 25.7507 40.1674 25.4576C39.8743 25.1646 39.4769 25 39.0625 25H32.8125ZM21.875 4.6875C23.209 4.68867 24.5245 5.00041 25.7172 5.59803C26.9099 6.19564 27.9471 7.06273 28.7467 8.13062C29.5462 9.19852 30.0862 10.4379 30.3238 11.7506C30.5614 13.0633 30.4901 14.4133 30.1156 15.6937C28.39 15.9053 26.7572 16.5924 25.3996 17.6785C24.0421 18.7645 23.0133 20.2067 22.4281 21.8438C22.2438 21.8562 22.0594 21.875 21.875 21.875C19.5958 21.875 17.4099 20.9696 15.7983 19.3579C14.1867 17.7463 13.2812 15.5605 13.2812 13.2812C13.2812 11.002 14.1867 8.81619 15.7983 7.20455C17.4099 5.59291 19.5958 4.6875 21.875 4.6875Z" fill="url(#paint0_linear_1059_3573)"/>
<defs>
<linearGradient id="paint0_linear_1059_3573" x1="12.662" y1="-13.374" x2="62.0407" y2="4.15587" gradientUnits="userSpaceOnUse">
<stop stop-color="#0099FF"/>
<stop offset="1" stop-color="#000080"/>
</linearGradient>
</defs>
</svg>
