<svg width="40" height="40" viewBox="0 0 40 40" fill="none" xmlns="http://www.w3.org/2000/svg">
<path fill-rule="evenodd" clip-rule="evenodd" d="M6.66797 6.66667C6.66797 6.22464 6.84356 5.80072 7.15612 5.48816C7.46869 5.17559 7.89261 5 8.33464 5H31.668C32.11 5 32.5339 5.17559 32.8465 5.48816C33.159 5.80072 33.3346 6.22464 33.3346 6.66667C33.3346 7.10869 33.159 7.53262 32.8465 7.84518C32.5339 8.15774 32.11 8.33333 31.668 8.33333V31.6667C32.11 31.6667 32.5339 31.8423 32.8465 32.1548C33.159 32.4674 33.3346 32.8913 33.3346 33.3333C33.3346 33.7754 33.159 34.1993 32.8465 34.5118C32.5339 34.8244 32.11 35 31.668 35H8.33464C7.89261 35 7.46869 34.8244 7.15612 34.5118C6.84356 34.1993 6.66797 33.7754 6.66797 33.3333C6.66797 32.8913 6.84356 32.4674 7.15612 32.1548C7.46869 31.8423 7.89261 31.6667 8.33464 31.6667V8.33333C7.89261 8.33333 7.46869 8.15774 7.15612 7.84518C6.84356 7.53262 6.66797 7.10869 6.66797 6.66667ZM15.0013 10C14.5593 10 14.1354 10.1756 13.8228 10.4882C13.5102 10.8007 13.3346 11.2246 13.3346 11.6667V13.3333C13.3346 13.7754 13.5102 14.1993 13.8228 14.5118C14.1354 14.8244 14.5593 15 15.0013 15H16.668C17.11 15 17.5339 14.8244 17.8465 14.5118C18.159 14.1993 18.3346 13.7754 18.3346 13.3333V11.6667C18.3346 11.2246 18.159 10.8007 17.8465 10.4882C17.5339 10.1756 17.11 10 16.668 10H15.0013ZM23.3346 10C22.8926 10 22.4687 10.1756 22.1561 10.4882C21.8436 10.8007 21.668 11.2246 21.668 11.6667V13.3333C21.668 13.7754 21.8436 14.1993 22.1561 14.5118C22.4687 14.8244 22.8926 15 23.3346 15H25.0013C25.4433 15 25.8673 14.8244 26.1798 14.5118C26.4924 14.1993 26.668 13.7754 26.668 13.3333V11.6667C26.668 11.2246 26.4924 10.8007 26.1798 10.4882C25.8673 10.1756 25.4433 10 25.0013 10H23.3346ZM15.0013 16.6667C14.5593 16.6667 14.1354 16.8423 13.8228 17.1548C13.5102 17.4674 13.3346 17.8913 13.3346 18.3333V20C13.3346 20.442 13.5102 20.8659 13.8228 21.1785C14.1354 21.4911 14.5593 21.6667 15.0013 21.6667H16.668C17.11 21.6667 17.5339 21.4911 17.8465 21.1785C18.159 20.8659 18.3346 20.442 18.3346 20V18.3333C18.3346 17.8913 18.159 17.4674 17.8465 17.1548C17.5339 16.8423 17.11 16.6667 16.668 16.6667H15.0013ZM23.3346 16.6667C22.8926 16.6667 22.4687 16.8423 22.1561 17.1548C21.8436 17.4674 21.668 17.8913 21.668 18.3333V20C21.668 20.442 21.8436 20.8659 22.1561 21.1785C22.4687 21.4911 22.8926 21.6667 23.3346 21.6667H25.0013C25.4433 21.6667 25.8673 21.4911 26.1798 21.1785C26.4924 20.8659 26.668 20.442 26.668 20V18.3333C26.668 17.8913 26.4924 17.4674 26.1798 17.1548C25.8673 16.8423 25.4433 16.6667 25.0013 16.6667H23.3346ZM18.3346 23.3333C17.4506 23.3333 16.6027 23.6845 15.9776 24.3096C15.3525 24.9348 15.0013 25.7826 15.0013 26.6667V31.6667H18.3346V26.6667H21.668V31.6667H25.0013V26.6667C25.0013 25.7826 24.6501 24.9348 24.025 24.3096C23.3999 23.6845 22.552 23.3333 21.668 23.3333H18.3346Z" fill="url(#paint0_linear_1059_3461)"/>
<defs>
<linearGradient id="paint0_linear_1059_3461" x1="10.8769" y1="-7.84375" x2="43.8352" y2="2.95674" gradientUnits="userSpaceOnUse">
<stop stop-color="#0099FF"/>
<stop offset="1" stop-color="#000080"/>
</linearGradient>
</defs>
</svg>
