<svg width="50" height="50" viewBox="0 0 50 50" fill="none" xmlns="http://www.w3.org/2000/svg">
<g clip-path="url(#clip0_1059_3725)">
<path d="M39.582 7.29297H10.4154C9.26953 7.29297 8.33203 8.23047 8.33203 9.3763V15.6263C8.33203 16.7721 9.26953 17.7096 10.4154 17.7096H39.582C40.7279 17.7096 41.6654 16.7721 41.6654 15.6263V9.3763C41.6654 8.23047 40.7279 7.29297 39.582 7.29297ZM39.582 19.793H10.4154C9.26953 19.793 8.33203 20.7305 8.33203 21.8763V28.1263C8.33203 29.2721 9.26953 30.2096 10.4154 30.2096H36.5612C37.9154 28.8555 41.6654 29.2721 41.6654 28.1263V21.8763C41.6654 20.7305 40.7279 19.793 39.582 19.793ZM35.832 32.293H10.4154C9.26953 32.293 8.33203 33.2305 8.33203 34.3763V40.6263C8.33203 41.7721 9.26953 42.7096 10.4154 42.7096H39.582C40.7279 42.7096 41.6654 41.7721 41.6654 40.6263V38.1263C41.6654 34.8971 39.0612 32.293 35.832 32.293Z" fill="url(#paint0_linear_1059_3725)"/>
<path d="M47.9167 26.043H33.3333C32.1875 26.043 31.25 26.9805 31.25 28.1263V40.418C31.25 41.7721 31.875 42.918 32.9167 43.7513L40.625 49.4805L48.3333 43.7513C49.375 42.918 50 41.7721 50 40.418V28.1263C50 26.9805 49.0625 26.043 47.9167 26.043Z" fill="#0099FF"/>
</g>
<defs>
<linearGradient id="paint0_linear_1059_3725" x1="13.5932" y1="-7.86979" x2="54.3129" y2="6.25904" gradientUnits="userSpaceOnUse">
<stop stop-color="#0099FF"/>
<stop offset="1" stop-color="#000080"/>
</linearGradient>
<clipPath id="clip0_1059_3725">
<rect width="50" height="50" fill="white"/>
</clipPath>
</defs>
</svg>
