<svg width="50" height="50" viewBox="0 0 50 50" fill="none" xmlns="http://www.w3.org/2000/svg">
<path fill-rule="evenodd" clip-rule="evenodd" d="M8.33203 8.33333C8.33203 7.7808 8.55153 7.25089 8.94223 6.86019C9.33293 6.46949 9.86283 6.25 10.4154 6.25H39.582C40.1346 6.25 40.6645 6.46949 41.0552 6.86019C41.4459 7.25089 41.6654 7.7808 41.6654 8.33333C41.6654 8.88587 41.4459 9.41577 41.0552 9.80647C40.6645 10.1972 40.1346 10.4167 39.582 10.4167V39.5833C40.1346 39.5833 40.6645 39.8028 41.0552 40.1935C41.4459 40.5842 41.6654 41.1141 41.6654 41.6667C41.6654 42.2192 41.4459 42.7491 41.0552 43.1398C40.6645 43.5305 40.1346 43.75 39.582 43.75H10.4154C9.86283 43.75 9.33293 43.5305 8.94223 43.1398C8.55153 42.7491 8.33203 42.2192 8.33203 41.6667C8.33203 41.1141 8.55153 40.5842 8.94223 40.1935C9.33293 39.8028 9.86283 39.5833 10.4154 39.5833V10.4167C9.86283 10.4167 9.33293 10.1972 8.94223 9.80647C8.55153 9.41577 8.33203 8.88587 8.33203 8.33333ZM18.7487 12.5C18.1962 12.5 17.6663 12.7195 17.2756 13.1102C16.8849 13.5009 16.6654 14.0308 16.6654 14.5833V16.6667C16.6654 17.2192 16.8849 17.7491 17.2756 18.1398C17.6663 18.5305 18.1962 18.75 18.7487 18.75H20.832C21.3846 18.75 21.9145 18.5305 22.3052 18.1398C22.6959 17.7491 22.9154 17.2192 22.9154 16.6667V14.5833C22.9154 14.0308 22.6959 13.5009 22.3052 13.1102C21.9145 12.7195 21.3846 12.5 20.832 12.5H18.7487ZM29.1654 12.5C28.6128 12.5 28.0829 12.7195 27.6922 13.1102C27.3015 13.5009 27.082 14.0308 27.082 14.5833V16.6667C27.082 17.2192 27.3015 17.7491 27.6922 18.1398C28.0829 18.5305 28.6128 18.75 29.1654 18.75H31.2487C31.8012 18.75 32.3311 18.5305 32.7218 18.1398C33.1125 17.7491 33.332 17.2192 33.332 16.6667V14.5833C33.332 14.0308 33.1125 13.5009 32.7218 13.1102C32.3311 12.7195 31.8012 12.5 31.2487 12.5H29.1654ZM18.7487 20.8333C18.1962 20.8333 17.6663 21.0528 17.2756 21.4435C16.8849 21.8342 16.6654 22.3641 16.6654 22.9167V25C16.6654 25.5525 16.8849 26.0824 17.2756 26.4731C17.6663 26.8638 18.1962 27.0833 18.7487 27.0833H20.832C21.3846 27.0833 21.9145 26.8638 22.3052 26.4731C22.6959 26.0824 22.9154 25.5525 22.9154 25V22.9167C22.9154 22.3641 22.6959 21.8342 22.3052 21.4435C21.9145 21.0528 21.3846 20.8333 20.832 20.8333H18.7487ZM29.1654 20.8333C28.6128 20.8333 28.0829 21.0528 27.6922 21.4435C27.3015 21.8342 27.082 22.3641 27.082 22.9167V25C27.082 25.5525 27.3015 26.0824 27.6922 26.4731C28.0829 26.8638 28.6128 27.0833 29.1654 27.0833H31.2487C31.8012 27.0833 32.3311 26.8638 32.7218 26.4731C33.1125 26.0824 33.332 25.5525 33.332 25V22.9167C33.332 22.3641 33.1125 21.8342 32.7218 21.4435C32.3311 21.0528 31.8012 20.8333 31.2487 20.8333H29.1654ZM22.9154 29.1667C21.8103 29.1667 20.7505 29.6057 19.9691 30.3871C19.1877 31.1685 18.7487 32.2283 18.7487 33.3333V39.5833H22.9154V33.3333H27.082V39.5833H31.2487V33.3333C31.2487 32.2283 30.8097 31.1685 30.0283 30.3871C29.2469 29.6057 28.1871 29.1667 27.082 29.1667H22.9154Z" fill="url(#paint0_linear_1059_3552)"/>
<defs>
<linearGradient id="paint0_linear_1059_3552" x1="13.5932" y1="-9.80469" x2="54.7911" y2="3.69592" gradientUnits="userSpaceOnUse">
<stop stop-color="#0099FF"/>
<stop offset="1" stop-color="#000080"/>
</linearGradient>
</defs>
</svg>
