<svg width="50" height="50" viewBox="0 0 50 50" fill="none" xmlns="http://www.w3.org/2000/svg">
<path d="M10.6784 9.375C8.95172 9.375 7.29577 10.0609 6.07483 11.2819C4.85389 12.5028 4.16797 14.1587 4.16797 15.8854V19.2708H45.8346V15.8854C45.8346 14.1587 45.1487 12.5028 43.9278 11.2819C42.7068 10.0609 41.0509 9.375 39.3242 9.375H10.6784ZM4.16797 34.1146V21.875H45.8346V34.1146C45.8346 35.8413 45.1487 37.4972 43.9278 38.7181C42.7068 39.9391 41.0509 40.625 39.3242 40.625H10.6784C8.95172 40.625 7.29577 39.9391 6.07483 38.7181C4.85389 37.4972 4.16797 35.8413 4.16797 34.1146ZM32.5534 30.7292C32.208 30.7292 31.8769 30.8663 31.6327 31.1105C31.3885 31.3547 31.2513 31.6859 31.2513 32.0312C31.2513 32.3766 31.3885 32.7078 31.6327 32.952C31.8769 33.1961 32.208 33.3333 32.5534 33.3333H38.2826C38.6279 33.3333 38.9591 33.1961 39.2033 32.952C39.4475 32.7078 39.5846 32.3766 39.5846 32.0312C39.5846 31.6859 39.4475 31.3547 39.2033 31.1105C38.9591 30.8663 38.6279 30.7292 38.2826 30.7292H32.5534Z" fill="url(#paint0_linear_1059_3627)"/>
<defs>
<linearGradient id="paint0_linear_1059_3627" x1="10.7444" y1="-4.00391" x2="56.6743" y2="18.573" gradientUnits="userSpaceOnUse">
<stop stop-color="#0099FF"/>
<stop offset="1" stop-color="#000080"/>
</linearGradient>
</defs>
</svg>
