<svg width="50" height="50" viewBox="0 0 50 50" fill="none" xmlns="http://www.w3.org/2000/svg">
<path fill-rule="evenodd" clip-rule="evenodd" d="M2.08203 6.2513C2.08203 5.69877 2.30152 5.16886 2.69223 4.77816C3.08293 4.38746 3.61283 4.16797 4.16536 4.16797H27.082C27.6346 4.16797 28.1645 4.38746 28.5552 4.77816C28.9459 5.16886 29.1654 5.69877 29.1654 6.2513V16.668H37.4987C38.8666 16.668 40.2212 16.9374 41.485 17.4609C42.7488 17.9844 43.8971 18.7517 44.8644 19.7189C45.8317 20.6862 46.599 21.8345 47.1224 23.0983C47.6459 24.3622 47.9154 25.7167 47.9154 27.0846V35.418C47.9159 36.7592 47.485 38.065 46.6863 39.1425C45.8875 40.22 44.7634 41.0119 43.4799 41.4013C43.0979 42.6617 42.3274 43.7692 41.2784 44.5657C40.2295 45.3622 38.9558 45.807 37.639 45.8365C36.3223 45.8661 35.0299 45.479 33.9463 44.7304C32.8627 43.9818 32.0432 42.91 31.6049 41.668H18.3945C17.9562 42.91 17.1368 43.9818 16.0532 44.7304C14.9696 45.479 13.6772 45.8661 12.3604 45.8365C11.0437 45.807 9.76997 45.3622 8.72104 44.5657C7.67212 43.7692 6.90162 42.6617 6.51953 41.4013C5.23569 41.0123 4.11109 40.2205 3.31197 39.143C2.51285 38.0655 2.08162 36.7595 2.08203 35.418V27.0846H14.582C15.1346 27.0846 15.6645 26.8651 16.0552 26.4744C16.4459 26.0837 16.6654 25.5538 16.6654 25.0013C16.6654 24.4488 16.4459 23.9189 16.0552 23.5282C15.6645 23.1375 15.1346 22.918 14.582 22.918H2.08203V18.7513H10.4154C10.9679 18.7513 11.4978 18.5318 11.8885 18.1411C12.2792 17.7504 12.4987 17.2205 12.4987 16.668C12.4987 16.1154 12.2792 15.5855 11.8885 15.1948C11.4978 14.8041 10.9679 14.5846 10.4154 14.5846H2.08203V6.2513ZM29.1654 37.5013H31.6049C32.0168 36.3356 32.7652 35.3182 33.7553 34.5778C34.7455 33.8375 35.933 33.4074 37.1676 33.3421C38.4023 33.2767 39.6285 33.579 40.6913 34.2107C41.7541 34.8424 42.6057 35.7751 43.1383 36.8909C43.529 36.5003 43.7486 35.9705 43.7487 35.418V27.0846C43.7487 25.427 43.0902 23.8373 41.9181 22.6652C40.746 21.4931 39.1563 20.8346 37.4987 20.8346H29.1654V37.5013ZM14.582 39.5846C14.582 39.0321 14.3625 38.5022 13.9718 38.1115C13.5811 37.7208 13.0512 37.5013 12.4987 37.5013C11.9462 37.5013 11.4163 37.7208 11.0256 38.1115C10.6349 38.5022 10.4154 39.0321 10.4154 39.5846C10.4154 40.1372 10.6349 40.6671 11.0256 41.0578C11.4163 41.4485 11.9462 41.668 12.4987 41.668C13.0512 41.668 13.5811 41.4485 13.9718 41.0578C14.3625 40.6671 14.582 40.1372 14.582 39.5846ZM36.0258 38.1117C35.6351 38.5023 35.4155 39.0321 35.4154 39.5846C35.4153 40.0666 35.5823 40.5337 35.888 40.9064C36.1937 41.279 36.6191 41.5342 37.0919 41.6283C37.5646 41.7224 38.0553 41.6497 38.4804 41.4226C38.9056 41.1955 39.2388 40.828 39.4233 40.3827C39.6078 39.9374 39.6323 39.4419 39.4924 38.9807C39.3526 38.5194 39.0571 38.1209 38.6564 37.853C38.2557 37.5852 37.7745 37.4646 37.2948 37.5117C36.8151 37.5589 36.3667 37.7709 36.0258 38.1117Z" fill="url(#paint0_linear_1059_3594)"/>
<defs>
<linearGradient id="paint0_linear_1059_3594" x1="9.31609" y1="-13.6721" x2="63.1884" y2="8.17295" gradientUnits="userSpaceOnUse">
<stop stop-color="#0099FF"/>
<stop offset="1" stop-color="#000080"/>
</linearGradient>
</defs>
</svg>
