<svg width="40" height="40" viewBox="0 0 40 40" fill="none" xmlns="http://www.w3.org/2000/svg">
<path d="M9.9987 6.66797H29.9987M9.9987 6.66797V33.3346M9.9987 6.66797H8.33203M29.9987 6.66797V33.3346M29.9987 6.66797H31.6654M9.9987 33.3346H29.9987M9.9987 33.3346H8.33203M29.9987 33.3346H31.6654M14.9987 11.668H16.6654V13.3346H14.9987V11.668ZM23.332 11.668H24.9987V13.3346H23.332V11.668ZM14.9987 18.3346H16.6654V20.0013H14.9987V18.3346ZM23.332 18.3346H24.9987V20.0013H23.332V18.3346ZM18.332 25.0013H21.6654C22.1074 25.0013 22.5313 25.1769 22.8439 25.4895C23.1564 25.802 23.332 26.2259 23.332 26.668V33.3346H16.6654V26.668C16.6654 26.2259 16.841 25.802 17.1535 25.4895C17.4661 25.1769 17.89 25.0013 18.332 25.0013Z" stroke="url(#paint0_linear_1059_3434)" stroke-width="3.33333" stroke-linecap="round" stroke-linejoin="round"/>
<defs>
<linearGradient id="paint0_linear_1059_3434" x1="12.0148" y1="-4.7487" x2="40.9404" y2="4.58212" gradientUnits="userSpaceOnUse">
<stop stop-color="#0099FF"/>
<stop offset="1" stop-color="#000080"/>
</linearGradient>
</defs>
</svg>
