<svg width="40" height="40" viewBox="0 0 40 40" fill="none" xmlns="http://www.w3.org/2000/svg">
<path d="M20.0026 3.33594C29.2076 3.33594 36.6693 10.7976 36.6693 20.0026C36.6693 29.2076 29.2076 36.6693 20.0026 36.6693C10.7976 36.6693 3.33594 29.2076 3.33594 20.0026C3.33594 10.7976 10.7976 3.33594 20.0026 3.33594ZM20.0026 26.6693C19.5606 26.6693 19.1367 26.8449 18.8241 27.1574C18.5115 27.47 18.3359 27.8939 18.3359 28.3359C18.3359 28.778 18.5115 29.2019 18.8241 29.5145C19.1367 29.827 19.5606 30.0026 20.0026 30.0026C20.4446 30.0026 20.8686 29.827 21.1811 29.5145C21.4937 29.2019 21.6693 28.778 21.6693 28.3359C21.6693 27.8939 21.4937 27.47 21.1811 27.1574C20.8686 26.8449 20.4446 26.6693 20.0026 26.6693ZM20.0026 10.8359C18.4003 10.8359 16.8635 11.4725 15.7305 12.6055C14.5975 13.7385 13.9609 15.2753 13.9609 16.8776C13.9609 17.3196 14.1365 17.7436 14.4491 18.0561C14.7617 18.3687 15.1856 18.5443 15.6276 18.5443C16.0696 18.5443 16.4936 18.3687 16.8061 18.0561C17.1187 17.7436 17.2943 17.3196 17.2943 16.8776C17.2948 16.386 17.4292 15.9038 17.6829 15.4828C17.9367 15.0617 18.3002 14.7176 18.7346 14.4875C19.169 14.2573 19.6579 14.1497 20.1488 14.1763C20.6396 14.2028 21.1141 14.3624 21.5211 14.6381C21.9282 14.9137 22.2526 15.2949 22.4594 15.7409C22.6663 16.1868 22.7479 16.6807 22.6955 17.1695C22.6431 17.6583 22.4586 18.1236 22.1618 18.5155C21.865 18.9075 21.4672 19.2112 21.0109 19.3943C19.8843 19.8443 18.3359 20.9976 18.3359 22.9193V23.3359C18.3359 23.778 18.5115 24.2019 18.8241 24.5145C19.1367 24.827 19.5606 25.0026 20.0026 25.0026C20.4446 25.0026 20.8686 24.827 21.1811 24.5145C21.4937 24.2019 21.6693 23.778 21.6693 23.3359C21.6693 22.9293 21.7526 22.7259 22.1043 22.5526L22.2493 22.4859C23.5506 21.9624 24.6293 21.0025 25.3005 19.7708C25.9716 18.5391 26.1934 17.1122 25.9278 15.7349C25.6622 14.3576 24.9257 13.1155 23.8447 12.2217C22.7636 11.3279 21.4053 10.838 20.0026 10.8359Z" fill="url(#paint0_linear_1059_3393)"/>
<defs>
<linearGradient id="paint0_linear_1059_3393" x1="8.59707" y1="-10.9349" x2="48.7605" y2="3.87189" gradientUnits="userSpaceOnUse">
<stop stop-color="#0099FF"/>
<stop offset="1" stop-color="#000080"/>
</linearGradient>
</defs>
</svg>
