<svg width="24" height="24" viewBox="0 0 24 24" fill="none" xmlns="http://www.w3.org/2000/svg">
<g clip-path="url(#clip0_410_1489)">
<path d="M4.8418 13.6568V7.69078C4.84167 7.49486 4.88017 7.30083 4.95512 7.11981C5.03007 6.93879 5.13998 6.77433 5.27856 6.63584C5.41715 6.49734 5.58168 6.38754 5.76275 6.31272C5.94382 6.2379 6.13788 6.19952 6.3338 6.19978H7.8248M4.8418 10.6738H7.0788M10.2088 13.6568V7.69078C10.2036 7.49166 10.2384 7.29353 10.311 7.10806C10.3837 6.9226 10.4927 6.75355 10.6317 6.6109C10.7707 6.46824 10.9369 6.35487 11.1204 6.27745C11.3039 6.20004 11.5011 6.16016 11.7003 6.16016C11.8995 6.16016 12.0966 6.20004 12.2802 6.27745C12.4637 6.35487 12.6299 6.46824 12.7689 6.6109C12.9079 6.75355 13.0169 6.9226 13.0896 7.10806C13.1622 7.29353 13.197 7.49166 13.1918 7.69078V13.6568M10.2088 10.6738H13.1918M17.6658 13.6568L19.1578 15.1478M19.1578 12.1648C19.163 12.3639 19.1282 12.562 19.0556 12.7475C18.9829 12.933 18.8739 13.102 18.7349 13.2447C18.5959 13.3873 18.4297 13.5007 18.2462 13.5781C18.0626 13.6555 17.8655 13.6954 17.6663 13.6954C17.4671 13.6954 17.2699 13.6555 17.0864 13.5781C16.9029 13.5007 16.7367 13.3873 16.5977 13.2447C16.4587 13.102 16.3497 12.933 16.277 12.7475C16.2044 12.562 16.1696 12.3639 16.1748 12.1648V7.69078C16.1696 7.49166 16.2044 7.29353 16.277 7.10806C16.3497 6.9226 16.4587 6.75355 16.5977 6.6109C16.7367 6.46824 16.9029 6.35487 17.0864 6.27745C17.2699 6.20004 17.4671 6.16016 17.6663 6.16016C17.8655 6.16016 18.0626 6.20004 18.2462 6.27745C18.4297 6.35487 18.5959 6.46824 18.7349 6.6109C18.8739 6.75355 18.9829 6.9226 19.0556 7.10806C19.1282 7.29353 19.163 7.49166 19.1578 7.69078V12.1648Z" stroke="#000080" stroke-width="1.5" stroke-linecap="round" stroke-linejoin="round"/>
<path d="M22.2 2.57031H1.8C1.52116 2.57137 1.25409 2.68288 1.05729 2.88043C0.860495 3.07798 0.749998 3.34547 0.75 3.62431V17.2123C0.749998 17.4912 0.860495 17.7586 1.05729 17.9562C1.25409 18.1537 1.52116 18.2653 1.8 18.2663H4.243C4.0227 19.4099 3.54912 20.4897 2.857 21.4263C5.907 21.4703 7.837 20.2903 8.995 18.2663H22.2C22.4795 18.2663 22.7476 18.1553 22.9453 17.9576C23.143 17.7599 23.254 17.4918 23.254 17.2123V3.62431C23.254 3.34477 23.143 3.07669 22.9453 2.87902C22.7476 2.68136 22.4795 2.57031 22.2 2.57031Z" stroke="#000080" stroke-width="1.5" stroke-linecap="round" stroke-linejoin="round"/>
</g>
<defs>
<clipPath id="clip0_410_1489">
<rect width="24" height="24" fill="white"/>
</clipPath>
</defs>
</svg>
