<svg width="56" height="56" viewBox="0 0 56 56" fill="none" xmlns="http://www.w3.org/2000/svg">
<rect width="56" height="56" rx="16" fill="#0099FF" fill-opacity="0.1"/>
<path d="M18.6667 30.3351C18.446 30.3358 18.2295 30.2739 18.0425 30.1565C17.8555 30.0392 17.7057 29.8712 17.6104 29.672C17.5151 29.4729 17.4782 29.2508 17.5042 29.0315C17.5301 28.8123 17.6176 28.6049 17.7567 28.4334L29.3067 16.5334C29.3934 16.4334 29.5114 16.3658 29.6416 16.3418C29.7717 16.3177 29.9061 16.3386 30.0228 16.401C30.1394 16.4634 30.2314 16.5636 30.2836 16.6852C30.3358 16.8068 30.3452 16.9425 30.3101 17.0701L28.0701 24.0934C28.004 24.2702 27.9818 24.4603 28.0054 24.6476C28.029 24.8348 28.0977 25.0135 28.2055 25.1684C28.3133 25.3233 28.4571 25.4497 28.6246 25.5368C28.792 25.6238 28.978 25.669 29.1667 25.6684H37.3334C37.5542 25.6677 37.7706 25.7296 37.9576 25.8469C38.1446 25.9643 38.2945 26.1323 38.3898 26.3315C38.4851 26.5306 38.5219 26.7527 38.496 26.972C38.4701 27.1912 38.3825 27.3986 38.2434 27.5701L26.6934 39.4701C26.6068 39.5701 26.4887 39.6377 26.3586 39.6617C26.2285 39.6858 26.0941 39.6649 25.9774 39.6025C25.8607 39.5401 25.7687 39.4399 25.7165 39.3183C25.6643 39.1967 25.655 39.061 25.6901 38.9334L27.9301 31.9101C27.9961 31.7333 28.0183 31.5431 27.9947 31.3559C27.9711 31.1687 27.9025 30.9899 27.7946 30.8351C27.6868 30.6802 27.543 30.5538 27.3756 30.4667C27.2082 30.3796 27.0221 30.3345 26.8334 30.3351H18.6667Z" stroke="#0099FF" stroke-width="2.1" stroke-linecap="round" stroke-linejoin="round"/>
</svg>
