<svg width="24" height="24" viewBox="0 0 24 24" fill="none" xmlns="http://www.w3.org/2000/svg">
<path d="M18 13.25L20 15.25V20C20 20.55 19.8043 21.021 19.413 21.413C19.0217 21.805 18.5507 22.0007 18 22H4C3.45 22 2.97933 21.8043 2.588 21.413C2.19667 21.0217 2.00067 20.5507 2 20V6C2 5.45 2.196 4.97933 2.588 4.588C2.98 4.19667 3.45067 4.00067 4 4H9.5C9.36667 4.3 9.26667 4.621 9.2 4.963C9.13333 5.305 9.08333 5.65067 9.05 6H4V20H18V13.25ZM19.3 8.9L22.5 12.1L21.1 13.5L17.9 10.3C17.55 10.5 17.175 10.6667 16.775 10.8C16.375 10.9333 15.95 11 15.5 11C14.25 11 13.1877 10.5623 12.313 9.687C11.4383 8.81167 11.0007 7.74933 11 6.5C10.9993 5.25067 11.437 4.18833 12.313 3.313C13.189 2.43767 14.2513 2 15.5 2C16.7487 2 17.8113 2.43767 18.688 3.313C19.5647 4.18833 20.002 5.25067 20 6.5C20 6.95 19.9333 7.375 19.8 7.775C19.6667 8.175 19.5 8.55 19.3 8.9ZM17.275 8.275C17.7583 7.79167 18 7.2 18 6.5C18 5.8 17.7583 5.20833 17.275 4.725C16.7917 4.24167 16.2 4 15.5 4C14.8 4 14.2083 4.24167 13.725 4.725C13.2417 5.20833 13 5.8 13 6.5C13 7.2 13.2417 7.79167 13.725 8.275C14.2083 8.75833 14.8 9 15.5 9C16.2 9 16.7917 8.75833 17.275 8.275ZM4 13.25V20V6V13V12.7V13.25Z" fill="#000080"/>
</svg>
