<svg width="32" height="34" viewBox="0 0 32 34" fill="none" xmlns="http://www.w3.org/2000/svg">
<rect y="2" width="32" height="32" rx="12" fill="white" fill-opacity="0.06"/>
<rect x="0.5" y="2.5" width="31" height="31" rx="11.5" stroke="white" stroke-opacity="0.08"/>
<g clip-path="url(#clip0_766_968)">
<path d="M21.8328 20.8714V22.6214C21.8335 22.7838 21.8002 22.9446 21.7351 23.0935C21.6701 23.2423 21.5746 23.376 21.4549 23.4858C21.3352 23.5956 21.1938 23.6792 21.04 23.7313C20.8861 23.7833 20.723 23.8026 20.5612 23.788C18.7662 23.593 17.0419 22.9796 15.527 21.9972C14.1176 21.1016 12.9226 19.9066 12.027 18.4972C11.0412 16.9754 10.4277 15.2428 10.2362 13.4397C10.2216 13.2784 10.2408 13.1158 10.2925 12.9623C10.3442 12.8088 10.4273 12.6678 10.5365 12.5481C10.6457 12.4285 10.7786 12.3329 10.9267 12.2675C11.0749 12.2021 11.235 12.1682 11.397 12.168H13.147C13.4301 12.1652 13.7046 12.2655 13.9192 12.4501C14.1339 12.6347 14.2741 12.891 14.3137 13.1714C14.3875 13.7314 14.5245 14.2813 14.722 14.8105C14.8005 15.0193 14.8175 15.2462 14.771 15.4644C14.7244 15.6825 14.6164 15.8828 14.4595 16.0414L13.7187 16.7822C14.5491 18.2426 15.7583 19.4518 17.2187 20.2822L17.9595 19.5414C18.1181 19.3845 18.3184 19.2764 18.5365 19.2299C18.7546 19.1834 18.9816 19.2004 19.1903 19.2789C19.7196 19.4763 20.2695 19.6133 20.8295 19.6872C21.1129 19.7272 21.3717 19.8699 21.5567 20.0882C21.7417 20.3066 21.8399 20.5853 21.8328 20.8714Z" stroke="white" stroke-opacity="0.4" stroke-width="1.16667" stroke-linecap="round" stroke-linejoin="round"/>
</g>
<defs>
<clipPath id="clip0_766_968">
<rect width="14" height="14" fill="white" transform="translate(9 11)"/>
</clipPath>
</defs>
</svg>
