<svg width="16" height="16" viewBox="0 0 16 16" fill="none" xmlns="http://www.w3.org/2000/svg">
<g clip-path="url(#clip0_766_1010)">
<path d="M13.3337 8.66566C13.3337 11.999 11.0003 13.6657 8.22699 14.6323C8.08177 14.6815 7.92402 14.6792 7.78033 14.6257C5.00033 13.6657 2.66699 11.999 2.66699 8.66566V3.999C2.66699 3.82219 2.73723 3.65262 2.86225 3.52759C2.98728 3.40257 3.15685 3.33233 3.33366 3.33233C4.66699 3.33233 6.33366 2.53233 7.49366 1.519C7.6349 1.39833 7.81456 1.33203 8.00033 1.33203C8.18609 1.33203 8.36576 1.39833 8.50699 1.519C9.67366 2.539 11.3337 3.33233 12.667 3.33233C12.8438 3.33233 13.0134 3.40257 13.1384 3.52759C13.2634 3.65262 13.3337 3.82219 13.3337 3.999V8.66566Z" stroke="white" stroke-opacity="0.6" stroke-width="1.33333" stroke-linecap="round" stroke-linejoin="round"/>
</g>
<defs>
<clipPath id="clip0_766_1010">
<rect width="16" height="16" fill="white"/>
</clipPath>
</defs>
</svg>
