<svg width="56" height="56" viewBox="0 0 56 56" fill="none" xmlns="http://www.w3.org/2000/svg">
<rect width="56" height="56" rx="16" fill="#0099FF" fill-opacity="0.1"/>
<path d="M27.9987 39.6693C34.442 39.6693 39.6654 34.4459 39.6654 28.0026C39.6654 21.5593 34.442 16.3359 27.9987 16.3359C21.5554 16.3359 16.332 21.5593 16.332 28.0026C16.332 34.4459 21.5554 39.6693 27.9987 39.6693Z" stroke="#0099FF" stroke-width="2.1" stroke-linecap="round" stroke-linejoin="round"/>
<path d="M27.9987 16.3359C25.003 19.4814 23.332 23.6588 23.332 28.0026C23.332 32.3464 25.003 36.5238 27.9987 39.6693C30.9944 36.5238 32.6654 32.3464 32.6654 28.0026C32.6654 23.6588 30.9944 19.4814 27.9987 16.3359Z" stroke="#0099FF" stroke-width="2.1" stroke-linecap="round" stroke-linejoin="round"/>
<path d="M16.332 28H39.6654" stroke="#0099FF" stroke-width="2.1" stroke-linecap="round" stroke-linejoin="round"/>
</svg>
