<svg width="56" height="56" viewBox="0 0 56 56" fill="none" xmlns="http://www.w3.org/2000/svg">
<rect width="56" height="56" rx="16" fill="#0099FF" fill-opacity="0.1"/>
<path d="M36.1654 30.3333C37.9037 28.63 39.6654 26.5883 39.6654 23.9167C39.6654 22.2149 38.9893 20.5828 37.786 19.3794C36.5826 18.176 34.9505 17.5 33.2487 17.5C31.1954 17.5 29.7487 18.0833 27.9987 19.8333C26.2487 18.0833 24.802 17.5 22.7487 17.5C21.0469 17.5 19.4148 18.176 18.2114 19.3794C17.0081 20.5828 16.332 22.2149 16.332 23.9167C16.332 26.6 18.082 28.6417 19.832 30.3333L27.9987 38.5L36.1654 30.3333Z" stroke="#0099FF" stroke-width="2.1" stroke-linecap="round" stroke-linejoin="round"/>
<path d="M27.9982 19.8359L24.5449 23.2893C24.3079 23.5246 24.1197 23.8045 23.9914 24.1129C23.863 24.4212 23.7969 24.7519 23.7969 25.0859C23.7969 25.42 23.863 25.7507 23.9914 26.059C24.1197 26.3674 24.3079 26.6473 24.5449 26.8826C25.5016 27.8393 27.0299 27.8743 28.0449 26.9643L30.4599 24.7476C31.0652 24.1983 31.8534 23.8941 32.6707 23.8941C33.4881 23.8941 34.2763 24.1983 34.8816 24.7476L38.3349 27.8509" stroke="#0099FF" stroke-width="2.1" stroke-linecap="round" stroke-linejoin="round"/>
<path d="M35.0013 31.4974L32.668 29.1641" stroke="#0099FF" stroke-width="2.1" stroke-linecap="round" stroke-linejoin="round"/>
<path d="M31.5013 34.9974L29.168 32.6641" stroke="#0099FF" stroke-width="2.1" stroke-linecap="round" stroke-linejoin="round"/>
</svg>
