<svg width="40" height="40" viewBox="0 0 40 40" fill="none" xmlns="http://www.w3.org/2000/svg">
<path d="M36.1006 11.5118C36.0898 11.4618 36.0898 11.41 36.1006 11.36C36.0914 11.3162 36.0914 11.271 36.1006 11.2272V11.0564L35.9868 10.7717C35.9405 10.6941 35.8829 10.6237 35.816 10.563L35.6452 10.4112H35.5503L28.0736 5.68607L21.0144 1.3215C20.8511 1.19195 20.6642 1.09529 20.4641 1.03686H20.3123C20.1427 1.00855 19.9695 1.00855 19.7999 1.03686H19.6102C19.3897 1.08561 19.1784 1.16887 18.9839 1.28355L4.80859 10.1076L4.6378 10.2404L4.46702 10.3922L4.27725 10.525L4.18237 10.6389L4.06851 10.9235V11.0943V11.2082C4.05008 11.334 4.05008 11.4619 4.06851 11.5877V28.1541C4.06787 28.4766 4.14942 28.7939 4.30547 29.0761C4.46152 29.3584 4.68693 29.5962 4.9604 29.7671L19.1927 38.5721L19.4773 38.686H19.6291C19.9502 38.7878 20.2949 38.7878 20.6159 38.686H20.7677L21.0524 38.5721L35.1708 29.8999C35.4443 29.729 35.6697 29.4912 35.8257 29.209C35.9818 28.9267 36.0633 28.6094 36.0627 28.2869V11.7206C36.0627 11.7206 36.1006 11.5877 36.1006 11.5118ZM19.9897 5.15473L23.3675 7.24213L12.7597 13.808L9.36292 11.7206L19.9897 5.15473ZM18.092 33.6193L7.65504 27.2432V15.1173L18.092 21.5693V33.6193ZM19.9897 18.2294L16.3652 16.0472L26.973 9.46236L30.6164 11.7206L19.9897 18.2294ZM32.3243 27.1863L21.8873 33.6762V21.5693L32.3243 15.1173V27.1863Z" fill="white"/>
</svg>
