<svg width="20" height="20" viewBox="0 0 20 20" fill="none" xmlns="http://www.w3.org/2000/svg">
<path d="M11.668 14.9987V4.9987C11.668 4.55667 11.4924 4.13275 11.1798 3.82019C10.8673 3.50763 10.4433 3.33203 10.0013 3.33203H3.33464C2.89261 3.33203 2.46868 3.50763 2.15612 3.82019C1.84356 4.13275 1.66797 4.55667 1.66797 4.9987V14.1654C1.66797 14.3864 1.75577 14.5983 1.91205 14.7546C2.06833 14.9109 2.28029 14.9987 2.5013 14.9987H4.16797" stroke="#155DFC" stroke-width="1.66667" stroke-linecap="round" stroke-linejoin="round"/>
<path d="M12.5 15H7.5" stroke="#155DFC" stroke-width="1.66667" stroke-linecap="round" stroke-linejoin="round"/>
<path d="M15.8346 15.0013H17.5013C17.7223 15.0013 17.9343 14.9135 18.0906 14.7572C18.2468 14.6009 18.3346 14.389 18.3346 14.168V11.1263C18.3343 10.9372 18.2696 10.7538 18.1513 10.6063L15.2513 6.9813C15.1734 6.8837 15.0745 6.80487 14.962 6.75063C14.8495 6.6964 14.7262 6.66815 14.6013 6.66797H11.668" stroke="#155DFC" stroke-width="1.66667" stroke-linecap="round" stroke-linejoin="round"/>
<path d="M14.1667 16.6654C15.0871 16.6654 15.8333 15.9192 15.8333 14.9987C15.8333 14.0782 15.0871 13.332 14.1667 13.332C13.2462 13.332 12.5 14.0782 12.5 14.9987C12.5 15.9192 13.2462 16.6654 14.1667 16.6654Z" stroke="#155DFC" stroke-width="1.66667" stroke-linecap="round" stroke-linejoin="round"/>
<path d="M5.83464 16.6654C6.75511 16.6654 7.5013 15.9192 7.5013 14.9987C7.5013 14.0782 6.75511 13.332 5.83464 13.332C4.91416 13.332 4.16797 14.0782 4.16797 14.9987C4.16797 15.9192 4.91416 16.6654 5.83464 16.6654Z" stroke="#155DFC" stroke-width="1.66667" stroke-linecap="round" stroke-linejoin="round"/>
</svg>
