<svg width="28" height="28" viewBox="0 0 28 28" fill="none" xmlns="http://www.w3.org/2000/svg">
<path d="M0 8C0 3.58172 3.58172 0 8 0H20C24.4183 0 28 3.58172 28 8V20C28 24.4183 24.4183 28 20 28H8C3.58172 28 0 24.4183 0 20V8Z" fill="white"/>
<path d="M13.1667 22.1079C13.42 22.2542 13.7074 22.3312 14 22.3312C14.2926 22.3312 14.58 22.2542 14.8333 22.1079L20.6667 18.7746C20.9198 18.6285 21.13 18.4183 21.2763 18.1653C21.4225 17.9122 21.4997 17.6252 21.5 17.3329V10.6663C21.4997 10.374 21.4225 10.0869 21.2763 9.83389C21.13 9.58086 20.9198 9.37073 20.6667 9.22459L14.8333 5.89126C14.58 5.74498 14.2926 5.66797 14 5.66797C13.7074 5.66797 13.42 5.74498 13.1667 5.89126L7.33333 9.22459C7.08022 9.37073 6.86998 9.58086 6.72372 9.83389C6.57745 10.0869 6.5003 10.374 6.5 10.6663V17.3329C6.5003 17.6252 6.57745 17.9122 6.72372 18.1653C6.86998 18.4183 7.08022 18.6285 7.33333 18.7746L13.1667 22.1079Z" stroke="#155DFC" stroke-width="1.66667" stroke-linecap="round" stroke-linejoin="round"/>
<path d="M14 22.3333V14" stroke="#155DFC" stroke-width="1.66667" stroke-linecap="round" stroke-linejoin="round"/>
<path d="M6.74219 9.83203L14.0005 13.9987L21.2589 9.83203" stroke="#155DFC" stroke-width="1.66667" stroke-linecap="round" stroke-linejoin="round"/>
<path d="M10.25 7.55859L17.75 11.8503" stroke="#155DFC" stroke-width="1.66667" stroke-linecap="round" stroke-linejoin="round"/>
</svg>
