<svg width="40" height="20" viewBox="0 0 40 20" fill="none" xmlns="http://www.w3.org/2000/svg">
<path d="M3.03764 4.81818V15H0.884943V4.81818H3.03764ZM13.7924 8.38281H11.6149C11.5751 8.10109 11.4939 7.85085 11.3713 7.6321C11.2486 7.41004 11.0912 7.22112 10.899 7.06534C10.7067 6.90956 10.4847 6.79025 10.2328 6.70739C9.9842 6.62453 9.71407 6.5831 9.42241 6.5831C8.89542 6.5831 8.43638 6.71402 8.04528 6.97585C7.65418 7.23437 7.35091 7.61222 7.13548 8.10938C6.92004 8.60322 6.81232 9.20312 6.81232 9.90909C6.81232 10.6349 6.92004 11.2448 7.13548 11.7386C7.35423 12.2325 7.65915 12.6054 8.05025 12.8572C8.44135 13.1091 8.89376 13.2351 9.40749 13.2351C9.69585 13.2351 9.96265 13.197 10.2079 13.1207C10.4565 13.0445 10.6769 12.9335 10.8691 12.7876C11.0614 12.6385 11.2205 12.4579 11.3464 12.2457C11.4757 12.0336 11.5652 11.7917 11.6149 11.5199L13.7924 11.5298C13.7361 11.9972 13.5952 12.4479 13.3699 12.8821C13.1478 13.313 12.8478 13.6991 12.47 14.0405C12.0955 14.3786 11.648 14.647 11.1277 14.8459C10.6106 15.0414 10.0256 15.1392 9.37269 15.1392C8.46455 15.1392 7.65252 14.9337 6.93661 14.5227C6.22402 14.1117 5.66057 13.5168 5.24627 12.7379C4.83529 11.959 4.62979 11.0161 4.62979 9.90909C4.62979 8.79877 4.8386 7.85417 5.25621 7.07528C5.67383 6.2964 6.24059 5.70312 6.9565 5.29545C7.67241 4.88447 8.47781 4.67898 9.37269 4.67898C9.96265 4.67898 10.5095 4.76184 11.0133 4.92756C11.5204 5.09328 11.9695 5.33523 12.3606 5.65341C12.7517 5.96828 13.0699 6.3544 13.3152 6.81179C13.5637 7.26918 13.7228 7.79285 13.7924 8.38281ZM24.6926 9.90909C24.6926 11.0194 24.4822 11.964 24.0613 12.7429C23.6436 13.5218 23.0736 14.1167 22.351 14.5277C21.6318 14.9354 20.8231 15.1392 19.9249 15.1392C19.0201 15.1392 18.208 14.9337 17.4888 14.5227C16.7696 14.1117 16.2012 13.5168 15.7836 12.7379C15.3659 11.959 15.1571 11.0161 15.1571 9.90909C15.1571 8.79877 15.3659 7.85417 15.7836 7.07528C16.2012 6.2964 16.7696 5.70312 17.4888 5.29545C18.208 4.88447 19.0201 4.67898 19.9249 4.67898C20.8231 4.67898 21.6318 4.88447 22.351 5.29545C23.0736 5.70312 23.6436 6.2964 24.0613 7.07528C24.4822 7.85417 24.6926 8.79877 24.6926 9.90909ZM22.5101 9.90909C22.5101 9.18987 22.4024 8.58333 22.187 8.08949C21.9748 7.59564 21.6749 7.22112 21.2871 6.96591C20.8993 6.7107 20.4453 6.5831 19.9249 6.5831C19.4045 6.5831 18.9505 6.7107 18.5627 6.96591C18.1749 7.22112 17.8733 7.59564 17.6578 8.08949C17.4457 8.58333 17.3397 9.18987 17.3397 9.90909C17.3397 10.6283 17.4457 11.2348 17.6578 11.7287C17.8733 12.2225 18.1749 12.5971 18.5627 12.8523C18.9505 13.1075 19.4045 13.2351 19.9249 13.2351C20.4453 13.2351 20.8993 13.1075 21.2871 12.8523C21.6749 12.5971 21.9748 12.2225 22.187 11.7287C22.4024 11.2348 22.5101 10.6283 22.5101 9.90909Z" fill="white" fill-opacity="0.6"/>
</svg>
