<svg width="36" height="36" viewBox="0 0 36 36" fill="none" xmlns="http://www.w3.org/2000/svg">
<rect width="36" height="36" rx="16" fill="white" fill-opacity="0.06"/>
<rect x="0.5" y="0.5" width="35" height="35" rx="15.5" stroke="white" stroke-opacity="0.08"/>
<g clip-path="url(#clip0_766_906)">
<path d="M18 11.3834C20.136 11.3834 20.3893 11.3914 21.2333 11.4301C23.4013 11.5287 24.414 12.5574 24.5127 14.7094C24.5513 15.5527 24.5587 15.8061 24.5587 17.9421C24.5587 20.0787 24.5507 20.3314 24.5127 21.1747C24.4133 23.3247 23.4033 24.3554 21.2333 24.4541C20.3893 24.4927 20.1373 24.5007 18 24.5007C15.864 24.5007 15.6107 24.4927 14.7673 24.4541C12.594 24.3547 11.5867 23.3214 11.488 21.1741C11.4493 20.3307 11.4413 20.0781 11.4413 17.9414C11.4413 15.8054 11.45 15.5527 11.488 14.7087C11.5873 12.5574 12.5973 11.5281 14.7673 11.4294C15.6113 11.3914 15.864 11.3834 18 11.3834ZM18 9.94141C15.8273 9.94141 15.5553 9.95074 14.702 9.98941C11.7967 10.1227 10.182 11.7347 10.0487 14.6427C10.0093 15.4967 10 15.7687 10 17.9414C10 20.1141 10.0093 20.3867 10.048 21.2401C10.1813 24.1454 11.7933 25.7601 14.7013 25.8934C15.5553 25.9321 15.8273 25.9414 18 25.9414C20.1727 25.9414 20.4453 25.9321 21.2987 25.8934C24.2013 25.7601 25.82 24.1481 25.9513 21.2401C25.9907 20.3867 26 20.1141 26 17.9414C26 15.7687 25.9907 15.4967 25.952 14.6434C25.8213 11.7407 24.2073 10.1234 21.2993 9.99007C20.4453 9.95074 20.1727 9.94141 18 9.94141ZM18 13.8334C17.4605 13.8334 16.9263 13.9397 16.4279 14.1461C15.9295 14.3526 15.4767 14.6551 15.0952 15.0366C14.7137 15.4181 14.4111 15.8709 14.2047 16.3693C13.9983 16.8677 13.892 17.4019 13.892 17.9414C13.892 18.4809 13.9983 19.0151 14.2047 19.5135C14.4111 20.0119 14.7137 20.4647 15.0952 20.8462C15.4767 21.2277 15.9295 21.5303 16.4279 21.7367C16.9263 21.9431 17.4605 22.0494 18 22.0494C19.0895 22.0494 20.1344 21.6166 20.9048 20.8462C21.6752 20.0758 22.108 19.0309 22.108 17.9414C22.108 16.8519 21.6752 15.807 20.9048 15.0366C20.1344 14.2662 19.0895 13.8334 18 13.8334ZM18 20.6081C17.2928 20.6081 16.6145 20.3271 16.1144 19.827C15.6143 19.3269 15.3333 18.6487 15.3333 17.9414C15.3333 17.2342 15.6143 16.5559 16.1144 16.0558C16.6145 15.5557 17.2928 15.2747 18 15.2747C18.7072 15.2747 19.3855 15.5557 19.8856 16.0558C20.3857 16.5559 20.6667 17.2342 20.6667 17.9414C20.6667 18.6487 20.3857 19.3269 19.8856 19.827C19.3855 20.3271 18.7072 20.6081 18 20.6081ZM22.2707 12.7114C22.1446 12.7114 22.0197 12.7362 21.9032 12.7845C21.7866 12.8328 21.6808 12.9035 21.5916 12.9927C21.5024 13.0819 21.4317 13.1877 21.3834 13.3042C21.3352 13.4207 21.3103 13.5456 21.3103 13.6717C21.3103 13.7979 21.3352 13.9227 21.3834 14.0392C21.4317 14.1558 21.5024 14.2616 21.5916 14.3508C21.6808 14.44 21.7866 14.5107 21.9032 14.559C22.0197 14.6072 22.1446 14.6321 22.2707 14.6321C22.5254 14.6321 22.7696 14.5309 22.9497 14.3508C23.1298 14.1707 23.231 13.9264 23.231 13.6717C23.231 13.417 23.1298 13.1728 22.9497 12.9927C22.7696 12.8126 22.5254 12.7114 22.2707 12.7114Z" fill="white" fill-opacity="0.5"/>
</g>
<defs>
<clipPath id="clip0_766_906">
<rect width="16" height="16" fill="white" transform="translate(10 10)"/>
</clipPath>
</defs>
</svg>
