<svg width="23" height="23" viewBox="0 0 23 23" fill="none" xmlns="http://www.w3.org/2000/svg">
<path fill-rule="evenodd" clip-rule="evenodd" d="M11.4993 1.19727C10.9196 1.19727 10.3858 1.34102 9.80214 1.58252C9.23768 1.81635 8.58218 2.16039 7.76664 2.58877L5.78481 3.62856C4.78335 4.15372 3.98314 4.57443 3.3631 4.98747C2.72293 5.41585 2.22843 5.86627 1.86906 6.47672C1.51064 7.08527 1.34964 7.7446 1.27202 8.52947C1.19727 9.29135 1.19727 10.2276 1.19727 11.4064V11.5923C1.19727 12.7711 1.19727 13.7073 1.27202 14.4692C1.34964 15.2551 1.5116 15.9134 1.86906 16.522C2.22843 17.1324 2.72197 17.5828 3.36406 18.0112C3.98218 18.4243 4.78335 18.845 5.78481 19.3701L7.76664 20.4099C8.58218 20.8383 9.23768 21.1823 9.80214 21.4162C10.3867 21.6577 10.9196 21.8014 11.4993 21.8014C12.0791 21.8014 12.6129 21.6577 13.1966 21.4162C13.761 21.1823 14.4165 20.8383 15.2321 20.4099L17.2139 19.3711C18.2153 18.845 19.0156 18.4243 19.6346 18.0112C20.2767 17.5828 20.7703 17.1324 21.1296 16.522C21.4881 15.9134 21.6491 15.2541 21.7267 14.4692C21.8014 13.7073 21.8014 12.7711 21.8014 11.5933V11.4054C21.8014 10.2276 21.8014 9.29135 21.7267 8.52947C21.6491 7.74364 21.4871 7.08527 21.1296 6.47672C20.7703 5.86627 20.2767 5.41585 19.6346 4.98747C19.0165 4.57443 18.2153 4.15372 17.2139 3.62856L15.2321 2.58877C14.4165 2.16039 13.761 1.81635 13.1966 1.58252C12.612 1.34102 12.0791 1.19727 11.4993 1.19727ZM8.40393 3.87677C9.25685 3.42922 9.85485 3.11681 10.3513 2.91172C10.8343 2.71143 11.1745 2.63477 11.4993 2.63477C11.8252 2.63477 12.1644 2.71143 12.6474 2.91172C13.1438 3.11681 13.7409 3.42922 14.5938 3.87677L16.5105 4.88302C17.5551 5.43022 18.2882 5.81643 18.8373 6.18252C19.1076 6.36364 19.3193 6.53135 19.4918 6.70002L16.2996 8.29564L8.15381 4.00806L8.40393 3.87677ZM6.65497 4.79485L6.48822 4.88302C5.44364 5.43022 4.71052 5.81643 4.16235 6.18252C3.92863 6.33439 3.70951 6.50763 3.50781 6.70002L11.4993 10.6963L14.7165 9.08627L6.85239 4.94818C6.77864 4.90822 6.71195 4.85642 6.65497 4.79485ZM2.81493 7.96022C2.76702 8.16531 2.72964 8.39818 2.70281 8.66939C2.63572 9.35364 2.63477 10.219 2.63477 11.4428V11.5549C2.63477 12.7797 2.63477 13.6451 2.70281 14.3283C2.76893 14.9963 2.89447 15.4285 3.10818 15.7927C3.32093 16.154 3.62856 16.4597 4.16235 16.8162C4.71052 17.1823 5.44364 17.5685 6.48822 18.1157L8.40489 19.1219C9.25781 19.5695 9.85485 19.8819 10.3513 20.087C10.5072 20.1515 10.6503 20.2042 10.7806 20.2451V11.9431L2.81493 7.96022ZM12.2181 20.2441C12.3484 20.2039 12.4915 20.1515 12.6474 20.087C13.1438 19.8819 13.7409 19.5695 14.5938 19.1219L16.5105 18.1157C17.5551 17.5675 18.2882 17.1823 18.8373 16.8162C19.3701 16.4597 19.6778 16.154 19.8915 15.7927C20.1052 15.4285 20.2298 14.9973 20.2959 14.3283C20.363 13.6451 20.3639 12.7797 20.3639 11.5559V11.4438C20.3639 10.219 20.3639 9.35364 20.2959 8.67035C20.2733 8.43186 20.2359 8.195 20.1838 7.96118L17.0098 9.54722V12.4577C17.0098 12.6483 16.934 12.8311 16.7992 12.9659C16.6645 13.1007 16.4816 13.1764 16.291 13.1764C16.1004 13.1764 15.9176 13.1007 15.7828 12.9659C15.648 12.8311 15.5723 12.6483 15.5723 12.4577V10.2669L12.2181 11.944V20.2441Z" fill="#E6E6E6"/>
</svg>
