<svg width="36" height="36" viewBox="0 0 36 36" fill="none" xmlns="http://www.w3.org/2000/svg">
<rect width="36" height="36" rx="16" fill="white" fill-opacity="0.06"/>
<rect x="0.5" y="0.5" width="35" height="35" rx="15.5" stroke="white" stroke-opacity="0.08"/>
<g clip-path="url(#clip0_766_900)">
<path d="M23.6313 23.5761H21.262V19.8634C21.262 18.9781 21.244 17.8387 20.0273 17.8387C18.792 17.8387 18.6033 18.8021 18.6033 19.7981V23.5761H16.234V15.9414H18.51V16.9821H18.5407C18.8587 16.3821 19.632 15.7487 20.7873 15.7487C23.188 15.7487 23.632 17.3287 23.632 19.3854L23.6313 23.5761ZM13.558 14.8967C12.7953 14.8967 12.1827 14.2794 12.1827 13.5201C12.1827 12.7614 12.796 12.1447 13.558 12.1447C14.318 12.1447 14.934 12.7614 14.934 13.5201C14.934 14.2794 14.3173 14.8967 13.558 14.8967ZM14.746 23.5761H12.37V15.9414H14.746V23.5761ZM24.8167 9.94141H11.1807C10.528 9.94141 10 10.4574 10 11.0941V24.7887C10 25.4261 10.528 25.9414 11.1807 25.9414H24.8147C25.4667 25.9414 26 25.4261 26 24.7887V11.0941C26 10.4574 25.4667 9.94141 24.8147 9.94141H24.8167Z" fill="white" fill-opacity="0.5"/>
</g>
<defs>
<clipPath id="clip0_766_900">
<rect width="16" height="16" fill="white" transform="translate(10 10)"/>
</clipPath>
</defs>
</svg>
