<svg width="74" height="74" viewBox="0 0 74 74" fill="none" xmlns="http://www.w3.org/2000/svg">
<rect x="8.48242" y="1.41406" width="56" height="56" rx="28" fill="url(#paint0_linear_223_815)"/>
<g filter="url(#filter0_dd_223_815)">
<rect x="8.48242" y="1.41406" width="56.5479" height="56.5479" rx="28.2739" fill="white" fill-opacity="0.01" shape-rendering="crispEdges"/>
</g>
<path d="M39.6651 18.8125H33.3034C32.7179 18.8125 32.2432 19.2872 32.2432 19.8728V21.9933C32.2432 22.5789 32.7179 23.0536 33.3034 23.0536H39.6651C40.2506 23.0536 40.7253 22.5789 40.7253 21.9933V19.8728C40.7253 19.2872 40.2506 18.8125 39.6651 18.8125Z" stroke="white" stroke-width="1.90849" stroke-linecap="round" stroke-linejoin="round"/>
<path d="M40.7242 20.9336H42.8448C43.4072 20.9336 43.9466 21.157 44.3442 21.5547C44.7419 21.9524 44.9653 22.4917 44.9653 23.0541V37.8979C44.9653 38.4604 44.7419 38.9997 44.3442 39.3974C43.9466 39.7951 43.4072 40.0185 42.8448 40.0185H30.1215C29.5591 40.0185 29.0197 39.7951 28.6221 39.3974C28.2244 38.9997 28.001 38.4604 28.001 37.8979V23.0541C28.001 22.4917 28.2244 21.9524 28.6221 21.5547C29.0197 21.157 29.5591 20.9336 30.1215 20.9336H32.2421" stroke="white" stroke-width="1.90849" stroke-linecap="round" stroke-linejoin="round"/>
<path d="M33.2979 31.5346L35.4184 33.6552L39.6595 29.4141" stroke="white" stroke-width="1.90849" stroke-linecap="round" stroke-linejoin="round"/>
<defs>
<filter id="filter0_dd_223_815" x="0.000244141" y="0.000366211" width="73.5122" height="73.5112" filterUnits="userSpaceOnUse" color-interpolation-filters="sRGB">
<feFlood flood-opacity="0" result="BackgroundImageFix"/>
<feColorMatrix in="SourceAlpha" type="matrix" values="0 0 0 0 0 0 0 0 0 0 0 0 0 0 0 0 0 0 127 0" result="hardAlpha"/>
<feMorphology radius="2.82739" operator="erode" in="SourceAlpha" result="effect1_dropShadow_223_815"/>
<feOffset dy="2.82739"/>
<feGaussianBlur stdDeviation="2.12054"/>
<feComposite in2="hardAlpha" operator="out"/>
<feColorMatrix type="matrix" values="0 0 0 0 0 0 0 0 0 0 0 0 0 0 0 0 0 0 0.1 0"/>
<feBlend mode="normal" in2="BackgroundImageFix" result="effect1_dropShadow_223_815"/>
<feColorMatrix in="SourceAlpha" type="matrix" values="0 0 0 0 0 0 0 0 0 0 0 0 0 0 0 0 0 0 127 0" result="hardAlpha"/>
<feMorphology radius="2.12054" operator="erode" in="SourceAlpha" result="effect2_dropShadow_223_815"/>
<feOffset dy="7.06848"/>
<feGaussianBlur stdDeviation="5.30136"/>
<feComposite in2="hardAlpha" operator="out"/>
<feColorMatrix type="matrix" values="0 0 0 0 0 0 0 0 0 0 0 0 0 0 0 0 0 0 0.1 0"/>
<feBlend mode="normal" in2="effect1_dropShadow_223_815" result="effect2_dropShadow_223_815"/>
<feBlend mode="normal" in="SourceGraphic" in2="effect2_dropShadow_223_815" result="shape"/>
</filter>
<linearGradient id="paint0_linear_223_815" x1="8.48242" y1="1.41406" x2="64.4824" y2="57.4141" gradientUnits="userSpaceOnUse">
<stop stop-color="#0099FF"/>
<stop offset="1" stop-color="#000080"/>
</linearGradient>
</defs>
</svg>
