<svg width="56" height="56" viewBox="0 0 56 56" fill="none" xmlns="http://www.w3.org/2000/svg">
<rect width="56" height="56" rx="16" fill="#DCEFFF"/>
<path d="M28 18C33.523 18 38 22.477 38 28C38 33.523 33.523 38 28 38C22.477 38 18 33.523 18 28C18 22.477 22.477 18 28 18ZM28 20C25.8783 20 23.8434 20.8429 22.3431 22.3431C20.8429 23.8434 20 25.8783 20 28C20 30.1217 20.8429 32.1566 22.3431 33.6569C23.8434 35.1571 25.8783 36 28 36C30.1217 36 32.1566 35.1571 33.6569 33.6569C35.1571 32.1566 36 30.1217 36 28C36 25.8783 35.1571 23.8434 33.6569 22.3431C32.1566 20.8429 30.1217 20 28 20ZM28 22C28.2449 22 28.4813 22.09 28.6644 22.2527C28.8474 22.4155 28.9643 22.6397 28.993 22.883L29 23V27.586L31.707 30.293C31.8863 30.473 31.9905 30.7144 31.9982 30.9684C32.006 31.2223 31.9168 31.4697 31.7488 31.6603C31.5807 31.8508 31.3464 31.9703 31.0935 31.9944C30.8406 32.0185 30.588 31.9454 30.387 31.79L30.293 31.707L27.293 28.707C27.1376 28.5514 27.0378 28.349 27.009 28.131L27 28V23C27 22.7348 27.1054 22.4804 27.2929 22.2929C27.4804 22.1054 27.7348 22 28 22Z" fill="#0099FF"/>
</svg>
