<svg width="24" height="24" viewBox="0 0 24 24" fill="none" xmlns="http://www.w3.org/2000/svg">
<path d="M14.134 6.99246L17.53 3.59546C17.9123 3.21935 18.4278 3.00954 18.9641 3.01174C19.5004 3.01393 20.0141 3.22795 20.3933 3.60717C20.7725 3.9864 20.9865 4.5001 20.9887 5.0364C20.9909 5.5727 20.7811 6.08815 20.405 6.47046L17.008 9.86646L18.846 19.0115C19.081 20.1815 16.812 21.8115 16.208 20.2615L13.518 13.3575L10.025 16.8505C10.195 18.8915 10.232 19.5705 8.801 21.0005L6.626 17.3745L3 15.1995C4.43 13.7685 5.109 13.8045 7.15 13.9755L10.643 10.4835L3.739 7.79246C2.189 7.18846 3.819 4.91846 4.989 5.15446L14.134 6.99246Z" stroke="#65758B" stroke-width="1.5" stroke-linecap="round" stroke-linejoin="round"/>
</svg>
