<svg width="56" height="56" viewBox="0 0 56 56" fill="none" xmlns="http://www.w3.org/2000/svg">
<path d="M0 16C0 7.16344 7.16344 0 16 0H40C48.8366 0 56 7.16344 56 16V40C56 48.8366 48.8366 56 40 56H16C7.16344 56 0 48.8366 0 40V16Z" fill="#0099FF" fill-opacity="0.1"/>
<path d="M37.332 19.8359H18.6654C17.3767 19.8359 16.332 20.8806 16.332 22.1693V33.8359C16.332 35.1246 17.3767 36.1693 18.6654 36.1693H37.332C38.6207 36.1693 39.6654 35.1246 39.6654 33.8359V22.1693C39.6654 20.8806 38.6207 19.8359 37.332 19.8359Z" stroke="#0099FF" stroke-width="2.1" stroke-linecap="round" stroke-linejoin="round"/>
<path d="M16.332 25.6641H39.6654" stroke="#0099FF" stroke-width="2.1" stroke-linecap="round" stroke-linejoin="round"/>
</svg>
