<svg width="24" height="24" viewBox="0 0 24 24" fill="none" xmlns="http://www.w3.org/2000/svg">
<path d="M13.91 2.91L11.83 5H14C16.1217 5 18.1566 5.84285 19.6569 7.34315C21.1571 8.84344 22 10.8783 22 13H20C20 11.4087 19.3679 9.88258 18.2426 8.75736C17.1174 7.63214 15.5913 7 14 7H11.83L13.92 9.09L12.5 10.5L8 6L9.41 4.59L12.5 1.5L13.91 2.91ZM2 12V22H18V12H2ZM4 18.56V15.45C4.60112 15.1009 5.10087 14.6011 5.45 14H14.55C14.8991 14.6011 15.3989 15.1009 16 15.45V18.56C15.4075 18.9091 14.915 19.4051 14.57 20H5.45C5.0995 19.4025 4.59986 18.9064 4 18.56ZM10 19C10.828 19 11.5 18.105 11.5 17C11.5 15.895 10.828 15 10 15C9.172 15 8.5 15.895 8.5 17C8.5 18.105 9.172 19 10 19Z" fill="#000080"/>
</svg>
