<svg width="23" height="23" viewBox="0 0 23 23" fill="none" xmlns="http://www.w3.org/2000/svg">
<path d="M14.3757 3.83398C13.359 3.83398 12.384 4.23785 11.6651 4.95674C10.9462 5.67563 10.5423 6.65065 10.5423 7.66732C10.5423 8.68398 10.9462 9.659 11.6651 10.3779C12.384 11.0968 13.359 11.5007 14.3757 11.5007C15.3923 11.5007 16.3673 11.0968 17.0862 10.3779C17.8051 9.659 18.209 8.68398 18.209 7.66732C18.209 6.65065 17.8051 5.67563 17.0862 4.95674C16.3673 4.23785 15.3923 3.83398 14.3757 3.83398ZM14.3757 5.65482C14.6399 5.65482 14.9016 5.70687 15.1458 5.80801C15.39 5.90915 15.6118 6.05739 15.7987 6.24427C15.9856 6.43114 16.1338 6.653 16.235 6.89717C16.3361 7.14134 16.3882 7.40303 16.3882 7.66732C16.3882 7.9316 16.3361 8.1933 16.235 8.43747C16.1338 8.68164 15.9856 8.90349 15.7987 9.09037C15.6118 9.27725 15.39 9.42549 15.1458 9.52663C14.9016 9.62776 14.6399 9.67982 14.3757 9.67982C14.1114 9.67982 13.8497 9.62776 13.6055 9.52663C13.3613 9.42549 13.1395 9.27725 12.9526 9.09037C12.7657 8.90349 12.6175 8.68164 12.5163 8.43747C12.4152 8.1933 12.3631 7.9316 12.3631 7.66732C12.3631 7.13357 12.5752 6.62168 12.9526 6.24427C13.33 5.86685 13.8419 5.65482 14.3757 5.65482ZM3.83398 6.70898V9.58398H0.958984V11.5007H3.83398V14.3757H5.75065V11.5007H8.62565V9.58398H5.75065V6.70898H3.83398ZM14.3757 12.459C11.8169 12.459 6.70898 13.7336 6.70898 16.2923V19.1673H22.0423V16.2923C22.0423 13.7336 16.9344 12.459 14.3757 12.459ZM14.3757 14.2798C17.2219 14.2798 20.2215 15.679 20.2215 16.2923V17.3465H8.52982V16.2923C8.52982 15.679 11.5007 14.2798 14.3757 14.2798Z" fill="#E6E6E6"/>
</svg>
