<svg width="32" height="32" viewBox="0 0 32 32" fill="none" xmlns="http://www.w3.org/2000/svg">
<path d="M14.6745 2.66406L24.4051 5.70406C24.6765 5.78879 24.9137 5.95804 25.0821 6.18711C25.2505 6.41619 25.3413 6.69309 25.3411 6.9774V9.33073H28.0078C28.3614 9.33073 28.7006 9.47121 28.9506 9.72125C29.2007 9.9713 29.3411 10.3104 29.3411 10.6641V13.3307H12.0078V10.6641C12.0078 10.3104 12.1483 9.9713 12.3983 9.72125C12.6484 9.47121 12.9875 9.33073 13.3411 9.33073H22.6745V7.9574L14.6745 5.45606L6.67448 7.9574V17.8294C6.67429 18.6457 6.86148 19.4512 7.22163 20.1837C7.58178 20.9163 8.10529 21.5564 8.75181 22.0547L9.00381 22.2361L14.6745 26.1027L19.7171 22.6641H13.3411C12.9875 22.6641 12.6484 22.5236 12.3983 22.2735C12.1483 22.0235 12.0078 21.6844 12.0078 21.3307V15.9974H29.3411V21.3307C29.3411 21.6844 29.2007 22.0235 28.9506 22.2735C28.7006 22.5236 28.3614 22.6641 28.0078 22.6641L23.7145 22.6654C23.1985 23.3454 22.5718 23.9454 21.8478 24.4387L14.6745 29.3307L7.50115 24.4401C6.42451 23.706 5.54348 22.7201 4.93467 21.568C4.32585 20.4158 4.00768 19.1325 4.00781 17.8294V6.9774C4.00797 6.69332 4.09886 6.41672 4.26723 6.18791C4.4356 5.9591 4.67264 5.79005 4.94381 5.7054L14.6745 2.66406Z" fill="white"/>
</svg>
