<svg width="14" height="14" viewBox="0 0 14 14" fill="none" xmlns="http://www.w3.org/2000/svg">
<path d="M11.6654 7.58099C11.6654 10.4977 9.6237 11.956 7.19703 12.8018C7.06996 12.8449 6.93193 12.8428 6.8062 12.796C4.3737 11.956 2.33203 10.4977 2.33203 7.58099V3.49766C2.33203 3.34295 2.39349 3.19458 2.50289 3.08518C2.61228 2.97578 2.76065 2.91432 2.91536 2.91432C4.08203 2.91432 5.54036 2.21432 6.55536 1.32766C6.67895 1.22207 6.83615 1.16406 6.9987 1.16406C7.16124 1.16406 7.31845 1.22207 7.44203 1.32766C8.46286 2.22016 9.91536 2.91432 11.082 2.91432C11.2367 2.91432 11.3851 2.97578 11.4945 3.08518C11.6039 3.19458 11.6654 3.34295 11.6654 3.49766V7.58099Z" stroke="#0099FF" stroke-width="1.16667" stroke-linecap="round" stroke-linejoin="round"/>
</svg>
