<svg width="64" height="64" viewBox="0 0 64 64" fill="none" xmlns="http://www.w3.org/2000/svg">
<rect width="64" height="64" rx="16" fill="#DCEFFF"/>
<path d="M25.323 35.3386C24.9693 35.3386 24.6302 35.4791 24.3801 35.7291C24.1301 35.9792 23.9896 36.3183 23.9896 36.6719V39.048C22.2708 37.1046 21.3224 34.5996 21.323 32.0053C21.3214 31.6131 21.3446 31.2212 21.3923 30.8319C21.4177 30.6561 21.4078 30.4769 21.3629 30.3049C21.3181 30.1329 21.2394 29.9717 21.1314 29.8305C21.0233 29.6894 20.8882 29.5714 20.7339 29.4832C20.5795 29.3951 20.4092 29.3387 20.2327 29.3174C20.0563 29.2961 19.8774 29.3102 19.7065 29.359C19.5356 29.4078 19.3762 29.4903 19.2377 29.6016C19.0991 29.7129 18.9842 29.8507 18.8997 30.0071C18.8152 30.1634 18.7628 30.3351 18.7456 30.5119C18.6848 31.0074 18.655 31.5061 18.6563 32.0053C18.6576 35.1869 19.8012 38.2624 21.879 40.6719H19.9896C19.636 40.6719 19.2969 40.8124 19.0468 41.0625C18.7968 41.3125 18.6563 41.6517 18.6563 42.0053C18.6563 42.3589 18.7968 42.698 19.0468 42.9481C19.2969 43.1981 19.636 43.3386 19.9896 43.3386H25.323C25.5315 43.3361 25.7365 43.2838 25.9206 43.1859C26.1048 43.088 26.2629 42.9474 26.3816 42.7759L26.431 42.7186C26.4403 42.7053 26.4403 42.6893 26.4483 42.6759C26.5112 42.5684 26.5588 42.4527 26.5896 42.3319C26.6094 42.2639 26.6236 42.1943 26.6323 42.1239C26.6363 42.0839 26.6563 42.0479 26.6563 42.0053V36.6719C26.6563 36.3183 26.5158 35.9792 26.2658 35.7291C26.0157 35.4791 25.6766 35.3386 25.323 35.3386ZM27.323 24.0053H24.9456C26.8893 22.2862 29.3948 21.3377 31.9896 21.3386C32.3818 21.3375 32.7737 21.3611 33.163 21.4093C33.5143 21.4517 33.8681 21.3529 34.1465 21.1344C34.4249 20.916 34.6052 20.5959 34.6476 20.2446C34.6901 19.8933 34.5912 19.5395 34.3728 19.2611C34.1544 18.9826 33.8343 18.8024 33.483 18.7599C32.9875 18.6996 32.4887 18.6702 31.9896 18.6719C28.808 18.6733 25.7325 19.8169 23.323 21.8946V20.0053C23.323 19.6517 23.1825 19.3125 22.9324 19.0625C22.6824 18.8124 22.3432 18.6719 21.9896 18.6719C21.636 18.6719 21.2969 18.8124 21.0468 19.0625C20.7968 19.3125 20.6563 19.6517 20.6563 20.0053V25.3386C20.6649 25.4268 20.6824 25.5139 20.7083 25.5986C20.7414 25.7628 20.8052 25.9193 20.8963 26.0599L20.9123 26.0826C21.0008 26.21 21.1109 26.321 21.2376 26.4106C21.2523 26.4213 21.2603 26.4373 21.275 26.4479C21.2936 26.4613 21.315 26.4653 21.335 26.4759C21.411 26.5212 21.4914 26.5587 21.575 26.5879C21.6873 26.6269 21.8043 26.6507 21.923 26.6586C21.947 26.6586 21.9656 26.6719 21.9896 26.6719H27.323C27.6766 26.6719 28.0157 26.5315 28.2658 26.2814C28.5158 26.0314 28.6563 25.6922 28.6563 25.3386C28.6563 24.985 28.5158 24.6459 28.2658 24.3958C28.0157 24.1458 27.6766 24.0053 27.323 24.0053ZM43.2696 38.4106C43.2363 38.2469 43.1726 38.0908 43.0816 37.9506L43.067 37.9279C42.978 37.8004 42.8675 37.6894 42.7403 37.5999C42.7256 37.5893 42.719 37.5733 42.703 37.5626C42.6896 37.5533 42.6723 37.5533 42.6576 37.5439C42.4879 37.4509 42.3027 37.3895 42.111 37.3626C42.0683 37.3586 42.0323 37.3386 41.9896 37.3386H36.6563C36.3027 37.3386 35.9635 37.4791 35.7135 37.7291C35.4634 37.9792 35.323 38.3183 35.323 38.672C35.323 39.0256 35.4634 39.3647 35.7135 39.6148C35.9635 39.8648 36.3027 40.0053 36.6563 40.0053H39.0323C37.089 41.7241 34.584 42.6726 31.9896 42.6719C31.5974 42.6726 31.2055 42.6486 30.8163 42.5999C30.465 42.5575 30.1112 42.6564 29.8327 42.8748C29.5543 43.0932 29.3741 43.4133 29.3316 43.7646C29.2892 44.1159 29.3881 44.4697 29.6065 44.7482C29.8249 45.0266 30.145 45.2068 30.4963 45.2493C30.9917 45.3101 31.4905 45.3399 31.9896 45.3386C35.1713 45.3373 38.2467 44.1937 40.6563 42.1159V44.0053C40.6563 44.3589 40.7968 44.698 41.0468 44.9481C41.2969 45.1981 41.636 45.3386 41.9896 45.3386C42.3432 45.3386 42.6824 45.1981 42.9324 44.9481C43.1825 44.698 43.323 44.3589 43.323 44.0053V38.672C43.3139 38.5837 43.296 38.4953 43.2696 38.4106ZM43.9896 23.3386C44.3433 23.3386 44.6824 23.1981 44.9324 22.9481C45.1825 22.698 45.323 22.3589 45.323 22.0053C45.323 21.6517 45.1825 21.3125 44.9324 21.0625C44.6824 20.8124 44.3433 20.6719 43.9896 20.6719H38.6563C38.5695 20.6809 38.4837 20.6983 38.4003 20.7239L38.391 20.7253C38.2296 20.7589 38.0759 20.8222 37.9376 20.9119L37.911 20.9293C37.784 21.0179 37.6735 21.128 37.5843 21.2546C37.5736 21.2679 37.5576 21.2759 37.547 21.2906C37.5376 21.3039 37.5376 21.3213 37.5283 21.3359C37.4348 21.5069 37.3734 21.6935 37.347 21.8866C37.343 21.9266 37.323 21.9626 37.323 22.0053V27.3386C37.323 27.6922 37.4634 28.0314 37.7135 28.2814C37.9635 28.5315 38.3027 28.6719 38.6563 28.6719C39.0099 28.6719 39.3491 28.5315 39.5991 28.2814C39.8491 28.0314 39.9896 27.6922 39.9896 27.3386V24.9613C41.7076 26.9056 42.656 29.4107 42.6563 32.0053C42.6574 32.3975 42.6338 32.7894 42.5856 33.1786C42.5431 33.5296 42.6417 33.8831 42.8597 34.1613C43.0777 34.4396 43.3974 34.6199 43.7483 34.6626C43.8023 34.669 43.8566 34.6722 43.911 34.6719C44.2365 34.6714 44.5505 34.5517 44.7939 34.3356C45.0373 34.1195 45.1932 33.8218 45.2323 33.4986C45.2935 33.0032 45.3238 32.5045 45.323 32.0053C45.3216 28.8236 44.178 25.7482 42.1003 23.3386H43.9896Z" fill="#0099FF"/>
</svg>
