<svg width="56" height="56" viewBox="0 0 56 56" fill="none" xmlns="http://www.w3.org/2000/svg">
<path d="M0 16C0 7.16344 7.16344 0 16 0H40C48.8366 0 56 7.16344 56 16V40C56 48.8366 48.8366 56 40 56H16C7.16344 56 0 48.8366 0 40V16Z" fill="#0099FF" fill-opacity="0.1"/>
<path d="M27.9987 39.6693C34.442 39.6693 39.6654 34.4459 39.6654 28.0026C39.6654 21.5593 34.442 16.3359 27.9987 16.3359C21.5554 16.3359 16.332 21.5593 16.332 28.0026C16.332 34.4459 21.5554 39.6693 27.9987 39.6693Z" stroke="#0099FF" stroke-width="2.1" stroke-linecap="round" stroke-linejoin="round"/>
<path d="M28 21V28L32.6667 30.3333" stroke="#0099FF" stroke-width="2.1" stroke-linecap="round" stroke-linejoin="round"/>
</svg>
