<svg width="56" height="56" viewBox="0 0 56 56" fill="none" xmlns="http://www.w3.org/2000/svg">
<path d="M0 16C0 7.16344 7.16344 0 16 0H40C48.8366 0 56 7.16344 56 16V40C56 48.8366 48.8366 56 40 56H16C7.16344 56 0 48.8366 0 40V16Z" fill="#0099FF" fill-opacity="0.1"/>
<path d="M27.4466 16.68C27.4978 16.5767 27.5767 16.4897 27.6747 16.4289C27.7726 16.3682 27.8855 16.3359 28.0008 16.3359C28.1161 16.3359 28.229 16.3682 28.3269 16.4289C28.4249 16.4897 28.5038 16.5767 28.555 16.68L31.25 22.1388C31.4275 22.4981 31.6896 22.809 32.0137 23.0447C32.3378 23.2804 32.7143 23.4339 33.1108 23.4921L39.1378 24.3741C39.252 24.3907 39.3593 24.4389 39.4475 24.5132C39.5358 24.5876 39.6015 24.6851 39.6372 24.7949C39.6728 24.9046 39.6771 25.0221 39.6495 25.1342C39.6218 25.2462 39.5634 25.3483 39.4808 25.4288L35.1221 29.6731C34.8347 29.9533 34.6196 30.299 34.4954 30.6807C34.3713 31.0624 34.3417 31.4685 34.4093 31.8641L35.4383 37.8608C35.4585 37.975 35.4461 38.0925 35.4027 38.1999C35.3593 38.3074 35.2865 38.4005 35.1928 38.4686C35.099 38.5368 34.9879 38.5771 34.8723 38.5852C34.7567 38.5932 34.6411 38.5686 34.5388 38.5141L29.1511 35.6815C28.7961 35.4951 28.4012 35.3977 28.0002 35.3977C27.5993 35.3977 27.2043 35.4951 26.8493 35.6815L21.4628 38.5141C21.3605 38.5683 21.2451 38.5926 21.1297 38.5844C21.0142 38.5762 20.9034 38.5358 20.8098 38.4677C20.7162 38.3997 20.6436 38.3067 20.6002 38.1994C20.5569 38.0921 20.5445 37.9748 20.5645 37.8608L21.5923 31.8653C21.6602 31.4695 21.6308 31.0631 21.5066 30.6812C21.3824 30.2993 21.1672 29.9533 20.8795 29.6731L16.5208 25.43C16.4375 25.3495 16.3785 25.2473 16.3504 25.1349C16.3224 25.0225 16.3265 24.9045 16.3622 24.7944C16.398 24.6842 16.4639 24.5863 16.5526 24.5118C16.6413 24.4373 16.7491 24.3892 16.8638 24.373L22.8896 23.4921C23.2866 23.4344 23.6636 23.281 23.9881 23.0453C24.3127 22.8095 24.5751 22.4985 24.7528 22.1388L27.4466 16.68Z" stroke="#0099FF" stroke-width="2.1" stroke-linecap="round" stroke-linejoin="round"/>
</svg>
