<svg width="14" height="14" viewBox="0 0 14 14" fill="none" xmlns="http://www.w3.org/2000/svg">
<g clip-path="url(#clip0_331_1577)">
<path d="M5.797 9.04311C5.74492 8.84124 5.63969 8.65701 5.49227 8.50959C5.34485 8.36217 5.16062 8.25694 4.95875 8.20486L1.38 7.28203C1.31894 7.2647 1.2652 7.22793 1.22694 7.17729C1.18867 7.12665 1.16797 7.06492 1.16797 7.00145C1.16797 6.93798 1.18867 6.87624 1.22694 6.8256C1.2652 6.77497 1.31894 6.73819 1.38 6.72086L4.95875 5.79745C5.16055 5.74542 5.34473 5.64028 5.49215 5.49297C5.63956 5.34566 5.74483 5.16155 5.797 4.95978L6.71983 1.38103C6.73698 1.31973 6.77372 1.26573 6.82443 1.22726C6.87515 1.18879 6.93705 1.16797 7.0007 1.16797C7.06436 1.16797 7.12626 1.18879 7.17698 1.22726C7.22769 1.26573 7.26442 1.31973 7.28158 1.38103L8.20383 4.95978C8.25591 5.16166 8.36113 5.34589 8.50855 5.49331C8.65597 5.64073 8.8402 5.74595 9.04208 5.79803L12.6208 6.72028C12.6824 6.73726 12.7366 6.77395 12.7753 6.82474C12.814 6.87553 12.8349 6.93761 12.8349 7.00145C12.8349 7.06529 12.814 7.12736 12.7753 7.17815C12.7366 7.22894 12.6824 7.26564 12.6208 7.28261L9.04208 8.20486C8.8402 8.25694 8.65597 8.36217 8.50855 8.50959C8.36113 8.65701 8.25591 8.84124 8.20383 9.04311L7.281 12.6219C7.26384 12.6832 7.22711 12.7372 7.17639 12.7756C7.12568 12.8141 7.06377 12.8349 7.00012 12.8349C6.93647 12.8349 6.87456 12.8141 6.82385 12.7756C6.77314 12.7372 6.7364 12.6832 6.71925 12.6219L5.797 9.04311Z" stroke="#0099FF" stroke-width="1.16667" stroke-linecap="round" stroke-linejoin="round"/>
<path d="M11.668 1.75V4.08333" stroke="#0099FF" stroke-width="1.16667" stroke-linecap="round" stroke-linejoin="round"/>
<path d="M12.8333 2.91797H10.5" stroke="#0099FF" stroke-width="1.16667" stroke-linecap="round" stroke-linejoin="round"/>
<path d="M2.33203 9.91797V11.0846" stroke="#0099FF" stroke-width="1.16667" stroke-linecap="round" stroke-linejoin="round"/>
<path d="M2.91667 10.5H1.75" stroke="#0099FF" stroke-width="1.16667" stroke-linecap="round" stroke-linejoin="round"/>
</g>
<defs>
<clipPath id="clip0_331_1577">
<rect width="14" height="14" fill="white"/>
</clipPath>
</defs>
</svg>
