<svg width="40" height="40" viewBox="0 0 40 40" fill="none" xmlns="http://www.w3.org/2000/svg">
<path d="M35.682 14.4009C35.682 14.4009 35.682 14.4009 35.682 14.3175C34.5077 11.1112 32.3769 8.343 29.5778 6.3873C26.7788 4.4316 23.4466 3.38281 20.032 3.38281C16.6174 3.38281 13.2853 4.4316 10.4862 6.3873C7.68717 8.343 5.55637 11.1112 4.38203 14.3175C4.38203 14.3175 4.38203 14.3175 4.38203 14.4009C3.07057 18.019 3.07057 21.9827 4.38203 25.6009C4.38203 25.6009 4.38203 25.6009 4.38203 25.6842C5.55637 28.8905 7.68717 31.6587 10.4862 33.6144C13.2853 35.5701 16.6174 36.6189 20.032 36.6189C23.4466 36.6189 26.7788 35.5701 29.5778 33.6144C32.3769 31.6587 34.5077 28.8905 35.682 25.6842C35.682 25.6842 35.682 25.6842 35.682 25.6009C36.9935 21.9827 36.9935 18.019 35.682 14.4009ZM7.0987 23.3342C6.52074 21.1495 6.52074 18.8522 7.0987 16.6675H10.1987C9.93208 18.8818 9.93208 21.12 10.1987 23.3342H7.0987ZM8.46536 26.6675H10.7987C11.1899 28.1539 11.7491 29.591 12.4654 30.9509C10.8309 29.8374 9.46453 28.3743 8.46536 26.6675ZM10.7987 13.3342H8.46536C9.45015 11.6327 10.799 10.17 12.4154 9.05086C11.7163 10.4129 11.1739 11.8499 10.7987 13.3342ZM18.332 32.8342C16.285 31.332 14.8473 29.1429 14.282 26.6675H18.332V32.8342ZM18.332 23.3342H13.5654C13.2543 21.1229 13.2543 18.8789 13.5654 16.6675H18.332V23.3342ZM18.332 13.3342H14.282C14.8473 10.8588 16.285 8.66972 18.332 7.16753V13.3342ZM31.532 13.3342H29.1987C28.8075 11.8478 28.2483 10.4108 27.532 9.05086C29.1665 10.1643 30.5329 11.6274 31.532 13.3342ZM21.6654 7.16753C23.7124 8.66972 25.1501 10.8588 25.7154 13.3342H21.6654V7.16753ZM21.6654 32.8342V26.6675H25.7154C25.1501 29.1429 23.7124 31.332 21.6654 32.8342ZM26.432 23.3342H21.6654V16.6675H26.432C26.743 18.8789 26.743 21.1229 26.432 23.3342ZM27.582 30.9509C28.2983 29.591 28.8575 28.1539 29.2487 26.6675H31.582C30.5829 28.3743 29.2165 29.8374 27.582 30.9509ZM32.8987 23.3342H29.7987C29.9342 22.2283 30.001 21.115 29.9987 20.0009C30.0005 18.8867 29.9337 17.7735 29.7987 16.6675H32.8987C33.4767 18.8522 33.4767 21.1495 32.8987 23.3342Z" fill="url(#paint0_linear_390_1868)"/>
<defs>
<linearGradient id="paint0_linear_390_1868" x1="8.64913" y1="-10.8464" x2="48.7239" y2="3.94152" gradientUnits="userSpaceOnUse">
<stop stop-color="#0099FF"/>
<stop offset="1" stop-color="#000080"/>
</linearGradient>
</defs>
</svg>
