<svg width="40" height="40" viewBox="0 0 40 40" fill="none" xmlns="http://www.w3.org/2000/svg">
<path d="M23.3359 13.3359H25.0026C25.4446 13.3359 25.8686 13.1603 26.1811 12.8478C26.4937 12.5352 26.6693 12.1113 26.6693 11.6693C26.6693 11.2272 26.4937 10.8033 26.1811 10.4908C25.8686 10.1782 25.4446 10.0026 25.0026 10.0026H23.3359C22.8939 10.0026 22.47 10.1782 22.1574 10.4908C21.8449 10.8033 21.6693 11.2272 21.6693 11.6693C21.6693 12.1113 21.8449 12.5352 22.1574 12.8478C22.47 13.1603 22.8939 13.3359 23.3359 13.3359ZM23.3359 20.0026H25.0026C25.4446 20.0026 25.8686 19.827 26.1811 19.5144C26.4937 19.2019 26.6693 18.778 26.6693 18.3359C26.6693 17.8939 26.4937 17.47 26.1811 17.1574C25.8686 16.8449 25.4446 16.6693 25.0026 16.6693H23.3359C22.8939 16.6693 22.47 16.8449 22.1574 17.1574C21.8449 17.47 21.6693 17.8939 21.6693 18.3359C21.6693 18.778 21.8449 19.2019 22.1574 19.5144C22.47 19.827 22.8939 20.0026 23.3359 20.0026ZM15.0026 13.3359H16.6693C17.1113 13.3359 17.5352 13.1603 17.8478 12.8478C18.1603 12.5352 18.3359 12.1113 18.3359 11.6693C18.3359 11.2272 18.1603 10.8033 17.8478 10.4908C17.5352 10.1782 17.1113 10.0026 16.6693 10.0026H15.0026C14.5606 10.0026 14.1367 10.1782 13.8241 10.4908C13.5115 10.8033 13.3359 11.2272 13.3359 11.6693C13.3359 12.1113 13.5115 12.5352 13.8241 12.8478C14.1367 13.1603 14.5606 13.3359 15.0026 13.3359ZM15.0026 20.0026H16.6693C17.1113 20.0026 17.5352 19.827 17.8478 19.5144C18.1603 19.2019 18.3359 18.778 18.3359 18.3359C18.3359 17.8939 18.1603 17.47 17.8478 17.1574C17.5352 16.8449 17.1113 16.6693 16.6693 16.6693H15.0026C14.5606 16.6693 14.1367 16.8449 13.8241 17.1574C13.5115 17.47 13.3359 17.8939 13.3359 18.3359C13.3359 18.778 13.5115 19.2019 13.8241 19.5144C14.1367 19.827 14.5606 20.0026 15.0026 20.0026ZM35.0026 33.3359H33.3359V5.0026C33.3359 4.56058 33.1603 4.13665 32.8478 3.82409C32.5352 3.51153 32.1113 3.33594 31.6693 3.33594H8.33594C7.89391 3.33594 7.46999 3.51153 7.15743 3.82409C6.84487 4.13665 6.66927 4.56058 6.66927 5.0026V33.3359H5.0026C4.56058 33.3359 4.13665 33.5115 3.82409 33.8241C3.51153 34.1367 3.33594 34.5606 3.33594 35.0026C3.33594 35.4446 3.51153 35.8686 3.82409 36.1811C4.13665 36.4937 4.56058 36.6693 5.0026 36.6693H35.0026C35.4446 36.6693 35.8686 36.4937 36.1811 36.1811C36.4937 35.8686 36.6693 35.4446 36.6693 35.0026C36.6693 34.5606 36.4937 34.1367 36.1811 33.8241C35.8686 33.5115 35.4446 33.3359 35.0026 33.3359ZM21.6693 33.3359H18.3359V26.6693H21.6693V33.3359ZM30.0026 33.3359H25.0026V25.0026C25.0026 24.5606 24.827 24.1367 24.5144 23.8241C24.2019 23.5115 23.778 23.3359 23.3359 23.3359H16.6693C16.2272 23.3359 15.8033 23.5115 15.4908 23.8241C15.1782 24.1367 15.0026 24.5606 15.0026 25.0026V33.3359H10.0026V6.66927H30.0026V33.3359Z" fill="url(#paint0_linear_390_1876)"/>
<defs>
<linearGradient id="paint0_linear_390_1876" x1="8.59707" y1="-10.9349" x2="48.7605" y2="3.87189" gradientUnits="userSpaceOnUse">
<stop stop-color="#0099FF"/>
<stop offset="1" stop-color="#000080"/>
</linearGradient>
</defs>
</svg>
