<svg width="40" height="40" viewBox="0 0 40 40" fill="none" xmlns="http://www.w3.org/2000/svg">
<path d="M36.0967 11.5118C36.0859 11.4618 36.0859 11.41 36.0967 11.36C36.0875 11.3162 36.0875 11.271 36.0967 11.2272V11.0564L35.9829 10.7717C35.9366 10.6941 35.879 10.6237 35.8121 10.563L35.6413 10.4112H35.5464L28.0697 5.68607L21.0105 1.3215C20.8472 1.19195 20.6603 1.09529 20.4602 1.03686H20.3084C20.1388 1.00855 19.9656 1.00855 19.796 1.03686H19.6062C19.3858 1.08561 19.1745 1.16887 18.98 1.28355L4.80468 10.1076L4.6339 10.2404L4.46311 10.3922L4.27335 10.525L4.17846 10.6389L4.06461 10.9235V11.0943V11.2082C4.04617 11.334 4.04617 11.4619 4.06461 11.5877V28.1541C4.06396 28.4766 4.14551 28.7939 4.30157 29.0761C4.45762 29.3584 4.68302 29.5962 4.95649 29.7671L19.1888 38.5721L19.4734 38.686H19.6252C19.9463 38.7878 20.291 38.7878 20.612 38.686H20.7638L21.0485 38.5721L35.1669 29.8999C35.4403 29.729 35.6657 29.4912 35.8218 29.209C35.9779 28.9267 36.0594 28.6094 36.0588 28.2869V11.7206C36.0588 11.7206 36.0967 11.5877 36.0967 11.5118ZM19.9858 5.15473L23.3636 7.24213L12.7558 13.808L9.35901 11.7206L19.9858 5.15473ZM18.0881 33.6193L7.65114 27.2432V15.1173L18.0881 21.5693V33.6193ZM19.9858 18.2294L16.3613 16.0472L26.9691 9.46236L30.6125 11.7206L19.9858 18.2294ZM32.3204 27.1863L21.8834 33.6762V21.5693L32.3204 15.1173V27.1863Z" fill="url(#paint0_linear_390_1884)"/>
<defs>
<linearGradient id="paint0_linear_390_1884" x1="9.10872" y1="-15.1447" x2="49.0556" y2="-2.64189" gradientUnits="userSpaceOnUse">
<stop stop-color="#0099FF"/>
<stop offset="1" stop-color="#000080"/>
</linearGradient>
</defs>
</svg>
