<svg width="48" height="20" viewBox="0 0 48 20" fill="none" xmlns="http://www.w3.org/2000/svg">
<g clip-path="url(#clip0_766_1000)">
<path d="M49.3116 13.0243H42.8636C43.0156 14.5683 44.1436 15.0643 45.4236 15.0643C46.7356 15.0643 47.7916 14.7683 48.6636 14.3043V16.9603C47.519 17.481 46.2729 17.7406 45.0156 17.7203C41.8076 17.7203 39.5516 15.7203 39.5516 12.0083C39.5516 8.59228 41.5516 6.26428 44.6316 6.26428C47.5996 6.26428 49.3436 8.55228 49.3436 11.9763C49.3436 12.3123 49.3276 12.7043 49.3116 13.0243ZM46.0316 8.44028C46.0316 7.86428 45.7436 6.26428 44.2556 6.26428C42.9596 6.26428 42.3916 7.52828 42.2876 8.44028H46.0316ZM34.3596 17.7603C33.1196 17.7603 32.1516 17.4003 31.4556 16.6803L31.4156 21.4323L28.1036 22.1363V6.59228H31.0396L31.1676 7.68028C31.554 7.21606 32.0444 6.84952 32.599 6.61043C33.1536 6.37135 33.7568 6.26646 34.3596 6.30428C36.9996 6.30428 38.8396 8.78428 38.8396 12.0163C38.8396 15.9683 36.7596 17.7603 34.3596 17.7603ZM33.6156 7.13628C32.7756 7.13628 32.2076 7.49628 31.8396 8.00028L31.8716 13.6563C32.2076 14.1043 32.7756 14.4803 33.6156 14.4803C34.9516 14.4803 35.8796 12.9923 35.8796 10.8163C35.8796 8.72028 34.9756 7.13628 33.6156 7.13628ZM24.1916 6.05628C23.0556 6.05628 22.3036 5.26428 22.3036 4.27228C22.3036 3.25628 23.0796 2.48828 24.2236 2.48828C25.3596 2.48828 26.1036 3.25628 26.1036 4.27228C26.1036 5.26428 25.3356 6.05628 24.1916 6.05628ZM22.5356 6.59228H25.8476V17.6003H22.5356V6.59228ZM19.4076 6.59228L19.5516 7.96028C20.3996 6.80028 21.5996 6.26428 22.5276 6.26428V9.36828C22.2476 9.31228 21.9276 9.28028 21.5436 9.28028C20.6156 9.28028 19.7276 9.64028 19.3996 10.3603V17.6003H16.0876V6.59228H19.4076ZM11.7196 3.95228L8.47962 4.64028V7.15228H6.58362V9.60028H8.47962V14.3843C8.47962 16.6083 9.59962 17.7603 12.2716 17.7603C13.0236 17.7603 13.9116 17.5923 14.3676 17.3683V14.8083C14.0476 14.9203 13.5276 15.0003 13.0876 15.0003C12.1836 15.0003 11.7916 14.5843 11.7916 13.6643V9.60028H14.3356V7.15228H11.7916L11.7196 3.95228ZM4.97562 12.0563C4.97562 10.6803 4.39962 10.1683 3.31162 10.1683C2.73562 10.1683 2.04762 10.3603 1.59962 10.6163V7.62428C2.41225 7.26429 3.28719 7.06593 4.17562 7.04028C6.69562 7.04028 8.27962 8.30428 8.27962 11.4883V17.6003H5.49562L5.33562 16.6243C4.75962 17.3763 3.87162 17.7603 2.81562 17.7603C1.07162 17.7603 -0.192383 16.6243 -0.192383 14.6723C-0.192383 12.4643 1.35162 11.3603 4.03162 10.9923L4.97562 10.8483V10.4563V12.0563ZM4.97562 14.6163L4.39962 14.7043C3.26362 14.8723 2.58362 15.2803 2.58362 16.0803C2.58362 16.6963 2.99962 17.0963 3.66362 17.0963C4.35162 17.0963 4.97562 16.6803 4.97562 16.0163V14.6163Z" fill="white" fill-opacity="0.6"/>
</g>
<defs>
<clipPath id="clip0_766_1000">
<rect width="48" height="20" fill="white"/>
</clipPath>
</defs>
</svg>
