<svg width="56" height="56" viewBox="0 0 56 56" fill="none" xmlns="http://www.w3.org/2000/svg">
<path d="M0 16C0 7.16344 7.16344 0 16 0H40C48.8366 0 56 7.16344 56 16V40C56 48.8366 48.8366 56 40 56H16C7.16344 56 0 48.8366 0 40V16Z" fill="#0099FF" fill-opacity="0.1"/>
<path d="M17.5 30.3333H21C21.6188 30.3333 22.2123 30.5792 22.6499 31.0168C23.0875 31.4543 23.3333 32.0478 23.3333 32.6667V36.1667C23.3333 36.7855 23.0875 37.379 22.6499 37.8166C22.2123 38.2542 21.6188 38.5 21 38.5H19.8333C19.2145 38.5 18.621 38.2542 18.1834 37.8166C17.7458 37.379 17.5 36.7855 17.5 36.1667V28C17.5 25.2152 18.6062 22.5445 20.5754 20.5754C22.5445 18.6062 25.2152 17.5 28 17.5C30.7848 17.5 33.4555 18.6062 35.4246 20.5754C37.3938 22.5445 38.5 25.2152 38.5 28V36.1667C38.5 36.7855 38.2542 37.379 37.8166 37.8166C37.379 38.2542 36.7855 38.5 36.1667 38.5H35C34.3812 38.5 33.7877 38.2542 33.3501 37.8166C32.9125 37.379 32.6667 36.7855 32.6667 36.1667V32.6667C32.6667 32.0478 32.9125 31.4543 33.3501 31.0168C33.7877 30.5792 34.3812 30.3333 35 30.3333H38.5" stroke="#0099FF" stroke-width="2.1" stroke-linecap="round" stroke-linejoin="round"/>
</svg>
