<svg width="14" height="14" viewBox="0 0 14 14" fill="none" xmlns="http://www.w3.org/2000/svg">
<path d="M11.6654 5.83073C11.6654 8.74331 8.43428 11.7766 7.34928 12.7135C7.2482 12.7895 7.12516 12.8306 6.9987 12.8306C6.87223 12.8306 6.74919 12.7895 6.64811 12.7135C5.56311 11.7766 2.33203 8.74331 2.33203 5.83073C2.33203 4.59305 2.8237 3.40607 3.69887 2.5309C4.57404 1.65573 5.76102 1.16406 6.9987 1.16406C8.23637 1.16406 9.42336 1.65573 10.2985 2.5309C11.1737 3.40607 11.6654 4.59305 11.6654 5.83073Z" stroke="#0099FF" stroke-width="1.16667" stroke-linecap="round" stroke-linejoin="round"/>
<path d="M7 7.58594C7.9665 7.58594 8.75 6.80244 8.75 5.83594C8.75 4.86944 7.9665 4.08594 7 4.08594C6.0335 4.08594 5.25 4.86944 5.25 5.83594C5.25 6.80244 6.0335 7.58594 7 7.58594Z" stroke="#0099FF" stroke-width="1.16667" stroke-linecap="round" stroke-linejoin="round"/>
</svg>
