<svg width="56" height="56" viewBox="0 0 56 56" fill="none" xmlns="http://www.w3.org/2000/svg">
<rect width="56" height="56" rx="16" fill="#0099FF" fill-opacity="0.1"/>
<path d="M37.3346 29.1659C37.3346 34.9992 33.2513 37.9159 28.398 39.6076C28.1438 39.6937 27.8678 39.6896 27.6163 39.5959C22.7513 37.9159 18.668 34.9992 18.668 29.1659V20.9992C18.668 20.6898 18.7909 20.3931 19.0097 20.1743C19.2285 19.9555 19.5252 19.8326 19.8346 19.8326C22.168 19.8326 25.0846 18.4326 27.1146 16.6592C27.3618 16.4481 27.6762 16.332 28.0013 16.332C28.3264 16.332 28.6408 16.4481 28.888 16.6592C30.9296 18.4442 33.8346 19.8326 36.168 19.8326C36.4774 19.8326 36.7741 19.9555 36.9929 20.1743C37.2117 20.3931 37.3346 20.6898 37.3346 20.9992V29.1659Z" stroke="#0099FF" stroke-width="2.1" stroke-linecap="round" stroke-linejoin="round"/>
</svg>
