<svg width="64" height="64" viewBox="0 0 64 64" fill="none" xmlns="http://www.w3.org/2000/svg">
<rect width="64" height="64" rx="16" fill="#DCEFFF"/>
<path d="M37.57 43.75C35.83 44.5774 33.9267 45.0045 32 45C24.832 45 19 39.168 19 32C19 28.925 20.057 26.021 22 23.692V26H24V20H18V22H20.842C18.3626 24.7397 16.9929 28.3049 17 32C17 40.271 23.729 47 32 47C34.2243 47.0046 36.4213 46.5112 38.43 45.556L37.57 43.75Z" fill="#0099FF"/>
<path d="M37 25C33.84 25 31.249 27.457 31.022 30.56C29.9226 29.5569 28.4882 29.0005 27 29H23V33C23 36.309 25.692 39 29 39H31V43H33V35H35C38.308 35 41 32.309 41 29V25H37ZM29 37C26.794 37 25 35.206 25 33V31H27C29.206 31 31 32.794 31 35V35.586L28.707 33.293L27.293 34.707L29.586 37H29ZM39 29C39 31.206 37.206 33 35 33H34.414L36.707 30.707L35.293 29.293L33 31.586V31C33 28.794 34.794 27 37 27H39V29Z" fill="#0099FF"/>
<path d="M47.0003 32C47.0003 23.729 40.2713 17 32.0003 17C29.7761 16.9954 27.579 17.4888 25.5703 18.444L26.4303 20.25C28.1703 19.4226 30.0736 18.9955 32.0003 19C39.1683 19 45.0003 24.832 45.0003 32C45.0003 35.075 43.9433 37.979 42.0003 40.308V38H40.0003V44H46.0003V42H43.1583C45.6377 39.2603 47.0075 35.6951 47.0003 32Z" fill="#0099FF"/>
</svg>
