<svg width="64" height="64" viewBox="0 0 64 64" fill="none" xmlns="http://www.w3.org/2000/svg">
<rect width="64" height="64" rx="16" fill="#DCEFFF"/>
<path d="M32.0013 18.6641C24.6493 18.6641 18.668 24.6454 18.668 31.9974V37.5214C18.668 38.8867 19.864 39.9974 21.3346 39.9974H22.668C23.0216 39.9974 23.3607 39.8569 23.6108 39.6069C23.8608 39.3568 24.0013 39.0177 24.0013 38.6641V31.8067C24.0013 31.4531 23.8608 31.114 23.6108 30.8639C23.3607 30.6139 23.0216 30.4734 22.668 30.4734H21.4573C22.1986 25.3134 26.6386 21.3307 32.0013 21.3307C37.364 21.3307 41.804 25.3134 42.5453 30.4734H41.3346C40.981 30.4734 40.6419 30.6139 40.3918 30.8639C40.1418 31.114 40.0013 31.4531 40.0013 31.8067V39.9974C40.0013 41.4681 38.8053 42.6641 37.3346 42.6641H34.668V41.3307H29.3346V45.3307H37.3346C40.276 45.3307 42.668 42.9387 42.668 39.9974C44.1386 39.9974 45.3346 38.8867 45.3346 37.5214V31.9974C45.3346 24.6454 39.3533 18.6641 32.0013 18.6641Z" fill="#0099FF"/>
</svg>
