<svg width="64" height="64" viewBox="0 0 64 64" fill="none" xmlns="http://www.w3.org/2000/svg">
<rect width="64" height="64" rx="16" fill="#DCEFFF"/>
<path d="M31.5654 45.1672C31.432 45.145 31.2987 45.1116 31.1654 45.0672C28.1654 44.0672 25.7765 42.217 23.9987 39.5165C22.2209 36.8161 21.332 33.9107 21.332 30.8005V24.5005C21.332 23.945 21.4934 23.445 21.816 23.0005C22.1387 22.5561 22.5551 22.2339 23.0654 22.0339L31.0654 19.0339C31.3765 18.9227 31.6876 18.8672 31.9987 18.8672C32.3098 18.8672 32.6209 18.9227 32.932 19.0339L40.932 22.0339C41.4431 22.2339 41.86 22.5561 42.1827 23.0005C42.5054 23.445 42.6663 23.945 42.6654 24.5005V30.8005C42.6654 33.9116 41.7765 36.8174 39.9987 39.5179C38.2209 42.2183 35.832 44.0681 32.832 45.0672C32.6987 45.1116 32.5654 45.145 32.432 45.1672C32.2987 45.1894 32.1543 45.2005 31.9987 45.2005C31.8431 45.2005 31.6987 45.1894 31.5654 45.1672ZM31.9987 42.5339C34.3098 41.8005 36.2209 40.3339 37.732 38.1339C39.2431 35.9339 39.9987 33.4894 39.9987 30.8005V24.5005L31.9987 21.5005L23.9987 24.5005V30.8005C23.9987 33.4894 24.7543 35.9339 26.2654 38.1339C27.7765 40.3339 29.6876 41.8005 31.9987 42.5339Z" fill="#0099FF"/>
</svg>
