<svg width="64" height="64" viewBox="0 0 64 64" fill="none" xmlns="http://www.w3.org/2000/svg">
<rect width="64" height="64" rx="16" fill="#DCEFFF"/>
<g clip-path="url(#clip0_1059_8764)">
<path fill-rule="evenodd" clip-rule="evenodd" d="M21.042 19.2406C22.7127 19.1193 25.216 19.0026 28.6654 19.0026C32.1147 19.0026 34.6187 19.1193 36.2887 19.2406C37.2827 19.3133 38.022 20.0519 38.094 21.0459C38.2154 22.7166 38.332 25.2199 38.332 28.6693C38.332 32.1186 38.2154 34.6226 38.094 36.2926C38.0214 37.2866 37.2827 38.0259 36.288 38.0979C34.618 38.2193 32.1147 38.3359 28.6654 38.3359C25.216 38.3359 22.712 38.2193 21.042 38.0979C20.048 38.0253 19.3087 37.2866 19.2367 36.2919C19.1154 34.6226 18.9987 32.1193 18.9987 28.6693C18.9987 25.2193 19.1154 22.7159 19.2367 21.0459C19.3094 20.0519 20.048 19.3126 21.042 19.2406ZM28.6654 16.3359C25.156 16.3359 22.588 16.4546 20.8487 16.5813C18.534 16.7493 16.7454 18.5379 16.5774 20.8526C16.4507 22.5919 16.332 25.1599 16.332 28.6693C16.332 32.1786 16.4507 34.7466 16.5774 36.4859C16.7454 38.8006 18.534 40.5893 20.8487 40.7573C22.588 40.8839 25.156 41.0026 28.6654 41.0026C32.1747 41.0026 34.7427 40.8839 36.482 40.7573C38.7967 40.5893 40.5854 38.8006 40.7534 36.4859C40.88 34.7466 40.9987 32.1786 40.9987 28.6693C40.9987 25.1599 40.88 22.5919 40.7534 20.8526C40.5854 18.5379 38.7967 16.7493 36.482 16.5813C34.7427 16.4546 32.1747 16.3359 28.6654 16.3359ZM35.332 23.0026C35.748 23.0026 36.1511 23.0042 36.5414 23.0073C36.5787 23.7839 36.6114 24.6713 36.6334 25.6753C36.1996 25.6713 35.7658 25.6693 35.332 25.6693C31.8827 25.6693 29.3787 25.7859 27.7094 25.9079C26.7147 25.9799 25.976 26.7186 25.904 27.7126C25.782 29.3833 25.6654 31.8866 25.6654 35.3359C25.6654 35.7857 25.6674 36.2195 25.6714 36.6373C24.7817 36.6181 23.8923 36.5874 23.0034 36.5453C23.0003 36.155 22.9987 35.7519 22.9987 35.3359C22.9987 31.8266 23.1174 29.2586 23.244 27.5193C23.412 25.2046 25.2007 23.4159 27.5154 23.2479C29.2547 23.1213 31.8227 23.0026 35.332 23.0026ZM23.244 43.1526L23.204 42.5606C24.1801 42.602 25.1566 42.6309 26.1334 42.6473C27.8201 42.6769 29.5073 42.6769 31.194 42.6473C33.5827 42.6073 35.4387 42.5126 36.812 42.4126C39.8374 42.1926 42.1894 39.8406 42.4094 36.8159C42.542 34.9906 42.6654 32.3133 42.6654 28.6693C42.6649 27.6702 42.6565 26.7422 42.64 25.8853H42.6394C42.6194 24.8982 42.5918 24.0055 42.5567 23.2073C42.7634 23.2206 42.9607 23.2342 43.1487 23.2479C45.4634 23.4159 47.252 25.2046 47.42 27.5193C47.5467 29.2586 47.6654 31.8266 47.6654 35.3359C47.6654 38.8453 47.5467 41.4133 47.42 43.1526C47.252 45.4673 45.4634 47.2559 43.1487 47.4239C41.4094 47.5506 38.8414 47.6693 35.332 47.6693C31.8227 47.6693 29.2547 47.5506 27.5154 47.4239C25.2007 47.2559 23.412 45.4673 23.244 43.1526Z" fill="#0099FF"/>
</g>
<defs>
<clipPath id="clip0_1059_8764">
<rect width="32" height="32" fill="white" transform="translate(16 16)"/>
</clipPath>
</defs>
</svg>
