<svg width="56" height="56" viewBox="0 0 56 56" fill="none" xmlns="http://www.w3.org/2000/svg">
<rect width="56" height="56" rx="16" fill="#DCEFFF"/>
<mask id="mask0_996_21312" style="mask-type:luminance" maskUnits="userSpaceOnUse" x="18" y="20" width="20" height="16">
<path d="M30.0002 20H26.0002C22.2292 20 20.3432 20 19.1722 21.172C18.3282 22.015 18.0923 23.229 18.0263 25.25H37.9743C37.9083 23.229 37.6722 22.015 36.8282 21.172C35.6572 20 33.7712 20 30.0002 20ZM26.0002 36H30.0002C33.7712 36 35.6572 36 36.8282 34.828C37.9992 33.656 38.0002 31.771 38.0002 28C38.0002 27.5587 37.9996 27.142 37.9982 26.75H18.0023C18.0003 27.142 17.9996 27.5587 18.0002 28C18.0002 31.771 18.0002 33.657 19.1722 34.828C20.3442 35.999 22.2292 36 26.0002 36Z" fill="white"/>
<path fill-rule="evenodd" clip-rule="evenodd" d="M21.25 32C21.25 31.8011 21.329 31.6103 21.4697 31.4697C21.6103 31.329 21.8011 31.25 22 31.25H26C26.1989 31.25 26.3897 31.329 26.5303 31.4697C26.671 31.6103 26.75 31.8011 26.75 32C26.75 32.1989 26.671 32.3897 26.5303 32.5303C26.3897 32.671 26.1989 32.75 26 32.75H22C21.8011 32.75 21.6103 32.671 21.4697 32.5303C21.329 32.3897 21.25 32.1989 21.25 32ZM27.75 32C27.75 31.8011 27.829 31.6103 27.9697 31.4697C28.1103 31.329 28.3011 31.25 28.5 31.25H30C30.1989 31.25 30.3897 31.329 30.5303 31.4697C30.671 31.6103 30.75 31.8011 30.75 32C30.75 32.1989 30.671 32.3897 30.5303 32.5303C30.3897 32.671 30.1989 32.75 30 32.75H28.5C28.3011 32.75 28.1103 32.671 27.9697 32.5303C27.829 32.3897 27.75 32.1989 27.75 32Z" fill="black"/>
</mask>
<g mask="url(#mask0_996_21312)">
<path d="M16 16H40V40H16V16Z" fill="#0099FF"/>
</g>
</svg>
