<svg width="64" height="64" viewBox="0 0 64 64" fill="none" xmlns="http://www.w3.org/2000/svg">
<rect width="64" height="64" rx="16" fill="#DCEFFF"/>
<path d="M29.3307 45.3281V36.5681M31.9974 30.6615H32.0107M31.9974 25.3281H32.0107M34.6641 36.5681V45.3281M35.9974 37.3281C34.8434 36.4626 33.4399 35.9948 31.9974 35.9948C30.5549 35.9948 29.1514 36.4626 27.9974 37.3281M37.3307 30.6615H37.3441M37.3307 25.3281H37.3441M26.6641 30.6615H26.6774M26.6641 25.3281H26.6774" stroke="#0099FF" stroke-width="2" stroke-linecap="round" stroke-linejoin="round"/>
<path d="M39.9987 18.6641H23.9987C22.5259 18.6641 21.332 19.858 21.332 21.3307V42.6641C21.332 44.1368 22.5259 45.3307 23.9987 45.3307H39.9987C41.4715 45.3307 42.6654 44.1368 42.6654 42.6641V21.3307C42.6654 19.858 41.4715 18.6641 39.9987 18.6641Z" stroke="#0099FF" stroke-width="2" stroke-linecap="round" stroke-linejoin="round"/>
</svg>
